<svg width="414" height="896" viewBox="0 0 414 896" fill="none" xmlns="http://www.w3.org/2000/svg">
<g clip-path="url(#clip0_4464_788)">
<path opacity="0.2" d="M412 120.5V541.5L232 78L412 120.5Z" fill="url(#paint0_linear_4464_788)"/>
<path opacity="0.2" d="M412 677.5V256.5L232 720L412 677.5Z" fill="url(#paint1_linear_4464_788)"/>
<path opacity="0.2" d="M72.6052 682.282L464.778 529.175L-32.446 530.063L72.6052 682.282Z" fill="url(#paint2_linear_4464_788)"/>
<path opacity="0.2" d="M347.611 740.709L-51.0011 896.33L454.387 895.427L347.611 740.709Z" fill="url(#paint3_linear_4464_788)"/>
<path opacity="0.2" d="M359.727 125.957L-32.4457 279.064L464.778 278.175L359.727 125.957Z" fill="url(#paint4_linear_4464_788)"/>
<path opacity="0.2" d="M0 122V543L180 79.5L0 122Z" fill="url(#paint5_linear_4464_788)"/>
<path opacity="0.2" d="M0 679V258L180 721.5L0 679Z" fill="url(#paint6_linear_4464_788)"/>
<rect x="139" y="711.332" width="6.89797" height="6.66667" fill="white"/>
<rect x="139" y="718.832" width="6.89797" height="6.66667" fill="white"/>
<rect x="139" y="726.332" width="6.89797" height="6.66667" fill="white"/>
<rect x="146.76" y="711.332" width="6.89797" height="6.66667" fill="white"/>
<rect x="146.76" y="718.832" width="6.89797" height="6.66667" fill="white"/>
<rect x="146.76" y="726.332" width="6.89797" height="6.66667" fill="white"/>
<rect width="6.78331" height="6.78331" transform="matrix(0.71906 0.694948 -0.71906 0.694948 161.123 708)" fill="white"/>
<rect x="154.521" y="718.832" width="6.89797" height="6.66667" fill="white"/>
<rect x="154.521" y="726.332" width="6.89797" height="6.66667" fill="white"/>
<path d="M171.32 733H178.02C180 733 180.84 732.88 181.5 732.46C182.54 731.82 183.2 730.5 183.2 729.06C183.2 727.92 182.8 726.74 182.2 726.14C181.42 725.34 180.36 725.04 178.4 725.04H176.26C175.3 725.04 174.98 725 174.58 724.82C174.1 724.6 173.82 724.12 173.82 723.52C173.82 722.82 174.16 722.3 174.72 722.16C175.14 722.06 175.24 722.06 176.5 722.04H182.46V719.66H175.86C174.3 719.66 173.6 719.72 173 719.94C171.6 720.42 170.68 721.9 170.68 723.62C170.68 724.76 171.14 725.84 171.94 726.54C172.64 727.14 173.68 727.42 175.28 727.42H177.74C178.38 727.42 178.9 727.5 179.18 727.66C179.72 727.92 180.04 728.46 180.04 729.08C180.04 729.6 179.8 730.04 179.38 730.3C179.04 730.52 178.46 730.62 177.4 730.62H171.32V733ZM191.366 730.92H189.166C188.026 730.92 187.766 730.46 187.766 728.44V723.26H185.086V728.7C185.086 730.58 185.266 731.24 185.966 732C186.666 732.74 187.466 733 188.986 733H191.366L191.346 733.36C191.306 733.9 191.186 734.12 190.866 734.24C190.666 734.32 190.206 734.38 189.866 734.38H185.086V736.46H189.866C191.066 736.46 191.906 736.3 192.486 735.98C193.546 735.38 194.046 734.36 194.046 732.8V723.26H191.366V730.92ZM196.711 723.26V733H199.391V725.34H201.711C202.691 725.34 203.091 725.72 203.091 726.7V733H205.771V727C205.771 725.64 205.431 724.68 204.751 724.04C204.071 723.44 203.431 723.26 201.871 723.26H196.711ZM216.393 723.26H212.733C210.933 723.26 209.913 723.54 209.113 724.22C208.133 725.06 207.613 726.4 207.613 728.1C207.613 729.56 208.033 730.72 208.873 731.66C209.753 732.64 210.773 733 212.733 733H216.393V730.92H213.493C212.413 730.92 211.893 730.8 211.373 730.44C210.693 729.98 210.353 729.2 210.353 728.14C210.353 726.16 211.193 725.34 213.193 725.34H216.393V723.26ZM219.268 725.34V733H221.948V725.34H224.448V723.26H221.948V722.82C221.948 722.04 222.268 721.74 223.088 721.74H224.448V719.66H222.088C220.128 719.66 219.268 720.56 219.268 722.68V723.26H217.508V725.34H219.268ZM232.406 730.92H229.886C229.086 730.92 228.606 730.4 228.606 729.52V723.26H225.926V729.26C225.926 730.62 226.266 731.58 226.946 732.22C227.626 732.82 228.266 733 229.826 733H235.086V723.26H232.406V730.92ZM246.206 723.26H240.486C239.366 723.26 238.786 723.38 238.326 723.72C237.626 724.26 237.206 725.14 237.206 726.1C237.206 727.1 237.626 728.02 238.306 728.54C238.886 729 239.486 729.14 240.766 729.14H242.406C243.066 729.14 243.346 729.16 243.526 729.26C243.846 729.38 244.026 729.7 244.026 730.1C244.026 730.54 243.786 730.82 243.366 730.88C243.146 730.9 242.766 730.92 242.106 730.92H237.346V733H242.886C243.986 733 244.686 732.92 245.066 732.74C245.986 732.34 246.646 731.14 246.646 729.94C246.646 728.16 245.426 727.16 243.286 727.16H241.706C240.926 727.16 240.606 727.12 240.426 727.02C240.126 726.84 239.966 726.56 239.966 726.2C239.966 725.5 240.246 725.34 241.446 725.34H246.206V723.26ZM248.722 723.26V733H251.402V723.26H248.722ZM248.722 722.26H251.402V719.66H248.722V722.26ZM258.575 723.12C255.395 723.12 253.375 725.04 253.375 728.1C253.375 731.28 255.275 733.14 258.475 733.14C261.675 733.14 263.675 731.26 263.675 728.24C263.675 726.84 263.315 725.72 262.555 724.76C261.715 723.68 260.335 723.12 258.575 723.12ZM258.495 725.18C260.115 725.18 260.935 726.16 260.935 728.1C260.935 730.1 260.135 731.08 258.555 731.08C256.955 731.08 256.115 730.08 256.115 728.18C256.115 726.18 256.895 725.18 258.495 725.18ZM265.675 723.26V733H268.355V725.34H270.675C271.655 725.34 272.055 725.72 272.055 726.7V733H274.735V727C274.735 725.64 274.395 724.68 273.715 724.04C273.035 723.44 272.395 723.26 270.835 723.26H265.675Z" fill="white"/>
<path d="M136.94 417.208C136.229 417.208 135.631 416.965 135.146 416.48C134.66 415.995 134.418 415.388 134.418 414.66C134.418 413.915 134.66 413.317 135.146 412.866C135.631 412.398 136.229 412.164 136.94 412.164C137.65 412.164 138.248 412.398 138.734 412.866C139.219 413.317 139.462 413.915 139.462 414.66C139.462 415.388 139.219 415.995 138.734 416.48C138.248 416.965 137.65 417.208 136.94 417.208ZM159.338 398.8V417H155.88L146.806 405.95V417H142.646V398.8H146.13L155.178 409.85V398.8H159.338ZM177.887 413.62V417H163.795V398.8H177.549V402.18H167.981V406.132H176.431V409.408H167.981V413.62H177.887ZM185.158 402.232H179.334V398.8H195.194V402.232H189.37V417H185.158V402.232ZM221.685 417L221.659 406.08L216.303 415.076H214.405L209.075 406.314V417H205.123V398.8H208.607L215.419 410.11L222.127 398.8H225.585L225.637 417H221.685ZM242.091 413.1H233.641L232.029 417H227.713L235.825 398.8H239.985L248.123 417H243.703L242.091 413.1ZM240.765 409.902L237.879 402.934L234.993 409.902H240.765ZM257.867 417.312C255.267 417.312 253.239 416.593 251.783 415.154C250.344 413.715 249.625 411.661 249.625 408.992V398.8H253.837V408.836C253.837 412.095 255.189 413.724 257.893 413.724C259.21 413.724 260.216 413.334 260.909 412.554C261.602 411.757 261.949 410.517 261.949 408.836V398.8H266.109V408.992C266.109 411.661 265.381 413.715 263.925 415.154C262.486 416.593 260.467 417.312 257.867 417.312ZM270.421 398.8H274.633V417H270.421V398.8Z" fill="#EDE9FC"/>
<path d="M135.673 451.2C134.26 451.2 132.98 450.893 131.833 450.28C130.7 449.653 129.806 448.793 129.153 447.7C128.513 446.607 128.193 445.373 128.193 444C128.193 442.627 128.52 441.393 129.173 440.3C129.826 439.207 130.72 438.353 131.853 437.74C133 437.113 134.28 436.8 135.693 436.8C136.84 436.8 137.886 437 138.833 437.4C139.78 437.8 140.58 438.38 141.233 439.14L139.553 440.72C138.54 439.627 137.293 439.08 135.813 439.08C134.853 439.08 133.993 439.293 133.233 439.72C132.473 440.133 131.88 440.713 131.453 441.46C131.026 442.207 130.813 443.053 130.813 444C130.813 444.947 131.026 445.793 131.453 446.54C131.88 447.287 132.473 447.873 133.233 448.3C133.993 448.713 134.853 448.92 135.813 448.92C137.293 448.92 138.54 448.367 139.553 447.26L141.233 448.86C140.58 449.62 139.773 450.2 138.813 450.6C137.866 451 136.82 451.2 135.673 451.2ZM148.044 451.14C146.964 451.14 145.99 450.907 145.124 450.44C144.257 449.973 143.577 449.327 143.084 448.5C142.604 447.66 142.364 446.713 142.364 445.66C142.364 444.607 142.604 443.667 143.084 442.84C143.577 442.013 144.257 441.367 145.124 440.9C145.99 440.433 146.964 440.2 148.044 440.2C149.137 440.2 150.117 440.433 150.984 440.9C151.85 441.367 152.524 442.013 153.004 442.84C153.497 443.667 153.744 444.607 153.744 445.66C153.744 446.713 153.497 447.66 153.004 448.5C152.524 449.327 151.85 449.973 150.984 450.44C150.117 450.907 149.137 451.14 148.044 451.14ZM148.044 449C148.964 449 149.724 448.693 150.324 448.08C150.924 447.467 151.224 446.66 151.224 445.66C151.224 444.66 150.924 443.853 150.324 443.24C149.724 442.627 148.964 442.32 148.044 442.32C147.124 442.32 146.364 442.627 145.764 443.24C145.177 443.853 144.884 444.66 144.884 445.66C144.884 446.66 145.177 447.467 145.764 448.08C146.364 448.693 147.124 449 148.044 449ZM162.344 440.2C163.691 440.2 164.771 440.593 165.584 441.38C166.397 442.167 166.804 443.333 166.804 444.88V451H164.304V445.2C164.304 444.267 164.084 443.567 163.644 443.1C163.204 442.62 162.577 442.38 161.764 442.38C160.844 442.38 160.117 442.66 159.584 443.22C159.051 443.767 158.784 444.56 158.784 445.6V451H156.284V440.32H158.664V441.7C159.077 441.207 159.597 440.833 160.224 440.58C160.851 440.327 161.557 440.2 162.344 440.2ZM176.546 450.42C176.252 450.66 175.892 450.84 175.466 450.96C175.052 451.08 174.612 451.14 174.146 451.14C172.972 451.14 172.066 450.833 171.426 450.22C170.786 449.607 170.466 448.713 170.466 447.54V442.4H168.706V440.4H170.466V437.96H172.966V440.4H175.826V442.4H172.966V447.48C172.966 448 173.092 448.4 173.346 448.68C173.599 448.947 173.966 449.08 174.446 449.08C175.006 449.08 175.472 448.933 175.846 448.64L176.546 450.42ZM181.132 441.88C181.852 440.76 183.119 440.2 184.932 440.2V442.58C184.719 442.54 184.525 442.52 184.352 442.52C183.379 442.52 182.619 442.807 182.072 443.38C181.525 443.94 181.252 444.753 181.252 445.82V451H178.752V440.32H181.132V441.88ZM191.905 451.14C190.825 451.14 189.852 450.907 188.985 450.44C188.119 449.973 187.439 449.327 186.945 448.5C186.465 447.66 186.225 446.713 186.225 445.66C186.225 444.607 186.465 443.667 186.945 442.84C187.439 442.013 188.119 441.367 188.985 440.9C189.852 440.433 190.825 440.2 191.905 440.2C192.999 440.2 193.979 440.433 194.845 440.9C195.712 441.367 196.385 442.013 196.865 442.84C197.359 443.667 197.605 444.607 197.605 445.66C197.605 446.713 197.359 447.66 196.865 448.5C196.385 449.327 195.712 449.973 194.845 450.44C193.979 450.907 192.999 451.14 191.905 451.14ZM191.905 449C192.825 449 193.585 448.693 194.185 448.08C194.785 447.467 195.085 446.66 195.085 445.66C195.085 444.66 194.785 443.853 194.185 443.24C193.585 442.627 192.825 442.32 191.905 442.32C190.985 442.32 190.225 442.627 189.625 443.24C189.039 443.853 188.745 444.66 188.745 445.66C188.745 446.66 189.039 447.467 189.625 448.08C190.225 448.693 190.985 449 191.905 449ZM200.146 436.16H202.646V451H200.146V436.16ZM209.377 451.14C208.51 451.14 207.664 451.027 206.837 450.8C206.01 450.573 205.35 450.287 204.857 449.94L205.817 448.04C206.297 448.36 206.87 448.62 207.537 448.82C208.217 449.007 208.884 449.1 209.537 449.1C211.03 449.1 211.777 448.707 211.777 447.92C211.777 447.547 211.584 447.287 211.197 447.14C210.824 446.993 210.217 446.853 209.377 446.72C208.497 446.587 207.777 446.433 207.217 446.26C206.67 446.087 206.19 445.787 205.777 445.36C205.377 444.92 205.177 444.313 205.177 443.54C205.177 442.527 205.597 441.72 206.437 441.12C207.29 440.507 208.437 440.2 209.877 440.2C210.61 440.2 211.344 440.287 212.077 440.46C212.81 440.62 213.41 440.84 213.877 441.12L212.917 443.02C212.01 442.487 210.99 442.22 209.857 442.22C209.124 442.22 208.564 442.333 208.177 442.56C207.804 442.773 207.617 443.06 207.617 443.42C207.617 443.82 207.817 444.107 208.217 444.28C208.63 444.44 209.264 444.593 210.117 444.74C210.97 444.873 211.67 445.027 212.217 445.2C212.764 445.373 213.23 445.667 213.617 446.08C214.017 446.493 214.217 447.08 214.217 447.84C214.217 448.84 213.784 449.64 212.917 450.24C212.05 450.84 210.87 451.14 209.377 451.14ZM222.437 437H228.557C230.051 437 231.377 437.293 232.537 437.88C233.697 438.453 234.597 439.273 235.237 440.34C235.877 441.393 236.197 442.613 236.197 444C236.197 445.387 235.877 446.613 235.237 447.68C234.597 448.733 233.697 449.553 232.537 450.14C231.377 450.713 230.051 451 228.557 451H222.437V437ZM228.437 448.8C229.464 448.8 230.364 448.607 231.137 448.22C231.924 447.82 232.524 447.26 232.937 446.54C233.364 445.807 233.577 444.96 233.577 444C233.577 443.04 233.364 442.2 232.937 441.48C232.524 440.747 231.924 440.187 231.137 439.8C230.364 439.4 229.464 439.2 228.437 439.2H225.037V448.8H228.437ZM248.911 445.72C248.911 445.893 248.898 446.14 248.871 446.46H240.491C240.638 447.247 241.018 447.873 241.631 448.34C242.258 448.793 243.031 449.02 243.951 449.02C245.124 449.02 246.091 448.633 246.851 447.86L248.191 449.4C247.711 449.973 247.104 450.407 246.371 450.7C245.638 450.993 244.811 451.14 243.891 451.14C242.718 451.14 241.684 450.907 240.791 450.44C239.898 449.973 239.204 449.327 238.711 448.5C238.231 447.66 237.991 446.713 237.991 445.66C237.991 444.62 238.224 443.687 238.691 442.86C239.171 442.02 239.831 441.367 240.671 440.9C241.511 440.433 242.458 440.2 243.511 440.2C244.551 440.2 245.478 440.433 246.291 440.9C247.118 441.353 247.758 442 248.211 442.84C248.678 443.667 248.911 444.627 248.911 445.72ZM243.511 442.2C242.711 442.2 242.031 442.44 241.471 442.92C240.924 443.387 240.591 444.013 240.471 444.8H246.531C246.424 444.027 246.098 443.4 245.551 442.92C245.004 442.44 244.324 442.2 243.511 442.2ZM264.942 440.2C266.289 440.2 267.356 440.593 268.142 441.38C268.929 442.153 269.322 443.32 269.322 444.88V451H266.822V445.2C266.822 444.267 266.616 443.567 266.202 443.1C265.789 442.62 265.196 442.38 264.422 442.38C263.582 442.38 262.909 442.66 262.402 443.22C261.896 443.767 261.642 444.553 261.642 445.58V451H259.142V445.2C259.142 444.267 258.936 443.567 258.522 443.1C258.109 442.62 257.516 442.38 256.742 442.38C255.889 442.38 255.209 442.653 254.702 443.2C254.209 443.747 253.962 444.54 253.962 445.58V451H251.462V440.32H253.842V441.68C254.242 441.2 254.742 440.833 255.342 440.58C255.942 440.327 256.609 440.2 257.342 440.2C258.142 440.2 258.849 440.353 259.462 440.66C260.089 440.953 260.582 441.393 260.942 441.98C261.382 441.42 261.949 440.987 262.642 440.68C263.336 440.36 264.102 440.2 264.942 440.2ZM277.565 451.14C276.485 451.14 275.511 450.907 274.645 450.44C273.778 449.973 273.098 449.327 272.605 448.5C272.125 447.66 271.885 446.713 271.885 445.66C271.885 444.607 272.125 443.667 272.605 442.84C273.098 442.013 273.778 441.367 274.645 440.9C275.511 440.433 276.485 440.2 277.565 440.2C278.658 440.2 279.638 440.433 280.505 440.9C281.371 441.367 282.045 442.013 282.525 442.84C283.018 443.667 283.265 444.607 283.265 445.66C283.265 446.713 283.018 447.66 282.525 448.5C282.045 449.327 281.371 449.973 280.505 450.44C279.638 450.907 278.658 451.14 277.565 451.14ZM277.565 449C278.485 449 279.245 448.693 279.845 448.08C280.445 447.467 280.745 446.66 280.745 445.66C280.745 444.66 280.445 443.853 279.845 443.24C279.245 442.627 278.485 442.32 277.565 442.32C276.645 442.32 275.885 442.627 275.285 443.24C274.698 443.853 274.405 444.66 274.405 445.66C274.405 446.66 274.698 447.467 275.285 448.08C275.885 448.693 276.645 449 277.565 449Z" fill="#EDE9FC"/>
<g opacity="0.9">
<rect x="187" y="329.539" width="10.2187" height="9.60383" fill="white"/>
<rect x="187" y="340.355" width="10.2187" height="9.60383" fill="white"/>
<rect x="187" y="351.137" width="10.2187" height="9.60383" fill="white"/>
<rect x="198.502" y="329.539" width="10.2187" height="9.60383" fill="white"/>
<rect x="198.502" y="340.355" width="10.2187" height="9.60383" fill="white"/>
<rect x="198.502" y="351.137" width="10.2187" height="9.60383" fill="white"/>
<rect width="9.91605" height="9.91605" transform="matrix(0.728691 0.684843 -0.728691 0.684843 219.773 324.738)" fill="white"/>
<rect x="209.99" y="340.355" width="10.2187" height="9.60383" fill="white"/>
<rect x="209.99" y="351.137" width="10.2187" height="9.60383" fill="white"/>
</g>
<path opacity="0.2" d="M55.3932 155.186L454.389 0.553108L-50.9994 0.204103L55.3932 155.186Z" fill="url(#paint7_linear_4464_788)"/>
</g>
<defs>
<linearGradient id="paint0_linear_4464_788" x1="350.049" y1="541.5" x2="350.049" y2="79.5" gradientUnits="userSpaceOnUse">
<stop stop-color="white" stop-opacity="0.35"/>
<stop offset="1" stop-color="white" stop-opacity="0"/>
</linearGradient>
<linearGradient id="paint1_linear_4464_788" x1="350.049" y1="256.5" x2="350.049" y2="718.5" gradientUnits="userSpaceOnUse">
<stop stop-color="white" stop-opacity="0.35"/>
<stop offset="1" stop-color="white" stop-opacity="0"/>
</linearGradient>
<linearGradient id="paint2_linear_4464_788" x1="442.248" y1="471.466" x2="11.8825" y2="639.483" gradientUnits="userSpaceOnUse">
<stop stop-color="white" stop-opacity="0.35"/>
<stop offset="1" stop-color="white" stop-opacity="0"/>
</linearGradient>
<linearGradient id="paint3_linear_4464_788" x1="-28.1011" y1="954.987" x2="409.331" y2="784.21" gradientUnits="userSpaceOnUse">
<stop stop-color="white" stop-opacity="0.35"/>
<stop offset="1" stop-color="white" stop-opacity="0"/>
</linearGradient>
<linearGradient id="paint4_linear_4464_788" x1="-9.91567" y1="336.773" x2="420.449" y2="168.755" gradientUnits="userSpaceOnUse">
<stop stop-color="white" stop-opacity="0.35"/>
<stop offset="1" stop-color="white" stop-opacity="0"/>
</linearGradient>
<linearGradient id="paint5_linear_4464_788" x1="61.9512" y1="543" x2="61.9512" y2="81" gradientUnits="userSpaceOnUse">
<stop stop-color="white" stop-opacity="0.35"/>
<stop offset="1" stop-color="white" stop-opacity="0"/>
</linearGradient>
<linearGradient id="paint6_linear_4464_788" x1="61.9512" y1="258" x2="61.9512" y2="720" gradientUnits="userSpaceOnUse">
<stop stop-color="white" stop-opacity="0.35"/>
<stop offset="1" stop-color="white" stop-opacity="0"/>
</linearGradient>
<linearGradient id="paint7_linear_4464_788" x1="431.635" y1="-58.1602" x2="-6.21866" y2="111.532" gradientUnits="userSpaceOnUse">
<stop stop-color="white" stop-opacity="0.35"/>
<stop offset="1" stop-color="white" stop-opacity="0"/>
</linearGradient>
<clipPath id="clip0_4464_788">
<rect width="414" height="896" fill="white"/>
</clipPath>
</defs>
</svg>
