<svg width="56" height="56" viewBox="0 0 56 56" fill="none" xmlns="http://www.w3.org/2000/svg">
<rect width="56" height="56" rx="20" fill="#F1E8FF"/>
<path d="M41.4046 22.3821L39.4334 25.3955C40.384 27.3225 40.8494 29.4592 40.7879 31.614C40.7264 33.7688 40.1398 35.8745 39.0808 37.7422H16.8686C15.4923 35.3154 14.9219 32.5024 15.2422 29.7202C15.5625 26.938 16.7563 24.3348 18.6467 22.2964C20.5371 20.2581 23.0234 18.8931 25.7371 18.4039C28.4507 17.9147 31.2473 18.3272 33.7121 19.5804L36.6769 17.5769C33.6584 15.6096 30.0779 14.728 26.5082 15.0733C22.9385 15.4185 19.5858 16.9705 16.9864 19.4811C14.3871 21.9917 12.6912 25.3158 12.1701 28.9217C11.6491 32.5275 12.3329 36.2069 14.1122 39.3711C14.3918 39.8635 14.7934 40.2729 15.277 40.5586C15.7606 40.8444 16.3093 40.9965 16.8686 41H39.0648C39.6296 41.0023 40.185 40.8528 40.6746 40.5668C41.1643 40.2807 41.571 39.8683 41.8534 39.3711C43.33 36.7713 44.071 33.8074 43.9946 30.8065C43.9183 27.8056 43.0275 24.8845 41.4207 22.3658L41.4046 22.3821Z" fill="url(#paint0_linear)"/>
<path d="M25.7151 33.5235C26.0127 33.8264 26.3662 34.0667 26.7554 34.2306C27.1445 34.3946 27.5615 34.479 27.9828 34.479C28.404 34.479 28.8211 34.3946 29.2102 34.2306C29.5993 34.0667 29.9528 33.8264 30.2505 33.5235L39.3212 19.6945L25.7151 28.9138C25.4171 29.2164 25.1806 29.5757 25.0193 29.9712C24.858 30.3666 24.775 30.7906 24.775 31.2187C24.775 31.6468 24.858 32.0707 25.0193 32.4662C25.1806 32.8617 25.4171 33.221 25.7151 33.5235Z" fill="url(#paint1_linear)"/>
<defs>
<linearGradient id="paint0_linear" x1="42" y1="15" x2="16.264" y2="44.6954" gradientUnits="userSpaceOnUse">
<stop stop-color="#6200EE"/>
<stop offset="1" stop-color="#007EC5"/>
</linearGradient>
<linearGradient id="paint1_linear" x1="42" y1="15" x2="16.264" y2="44.6954" gradientUnits="userSpaceOnUse">
<stop stop-color="#6200EE"/>
<stop offset="1" stop-color="#007EC5"/>
</linearGradient>
</defs>
</svg>
