<svg width="48" height="48" viewBox="0 0 48 48" fill="none" xmlns="http://www.w3.org/2000/svg">
<rect width="48" height="48" fill="#8B71F6"/>
<path d="M17 17.9857H21.0877V21.6834H17V17.9857Z" fill="white"/>
<path d="M17 22.1495H21.0877V25.8473H17V22.1495Z" fill="white"/>
<path d="M17 26.3023H21.0877V30H17V26.3023Z" fill="white"/>
<path d="M21.6017 17.9852H25.6894V21.683H21.6017V17.9852Z" fill="white"/>
<path d="M21.6017 22.1495H25.6894V25.8473H21.6017V22.1495Z" fill="white"/>
<path d="M21.6017 26.3023H25.6894V30H21.6017V26.3023Z" fill="white"/>
<path d="M30.1095 16L33 18.6128L30.1095 21.3675L27.2191 18.6128L30.1095 16Z" fill="white"/>
<path d="M26.1963 22.1495H30.2841V25.8473H26.1963V22.1495Z" fill="white"/>
<path d="M26.1963 26.3023H30.2841V30H26.1963V26.3023Z" fill="white"/>
</svg>
