<svg width="56" height="56" viewBox="0 0 56 56" fill="none" xmlns="http://www.w3.org/2000/svg">
<rect width="56" height="56" rx="20" fill="#F1E8FF"/>
<path d="M27.9259 25.2444L31.7509 19.1111H34.815L29.3207 28L34.963 36.8889H31.8354L27.9259 30.6667L23.9953 36.8889H20.8889L26.5946 28L21.0368 19.1111H24.101L27.9259 25.2444Z" fill="url(#paint0_linear_2545_787)"/>
<path fill-rule="evenodd" clip-rule="evenodd" d="M40.4444 13.7778H15.5556C14.5737 13.7778 13.7778 14.5737 13.7778 15.5556V40.4444C13.7778 41.4263 14.5737 42.2222 15.5556 42.2222H40.4444C41.4263 42.2222 42.2222 41.4263 42.2222 40.4444V15.5556C42.2222 14.5737 41.4263 13.7778 40.4444 13.7778ZM15.5556 12C13.5919 12 12 13.5919 12 15.5556V40.4444C12 42.4081 13.5919 44 15.5556 44H40.4444C42.4081 44 44 42.4081 44 40.4444V15.5556C44 13.5919 42.4081 12 40.4444 12H15.5556Z" fill="url(#paint1_linear_2545_787)"/>
<defs>
<linearGradient id="paint0_linear_2545_787" x1="42" y1="12" x2="10.0665" y2="41.9376" gradientUnits="userSpaceOnUse">
<stop stop-color="#6200EE"/>
<stop offset="1" stop-color="#007EC5"/>
</linearGradient>
<linearGradient id="paint1_linear_2545_787" x1="42" y1="12" x2="10.0665" y2="41.9376" gradientUnits="userSpaceOnUse">
<stop stop-color="#6200EE"/>
<stop offset="1" stop-color="#007EC5"/>
</linearGradient>
</defs>
</svg>
