<?xml version="1.0" encoding="utf-8"?>
<svg xmlns="http://www.w3.org/2000/svg" height="32" width="32" viewBox="0 0 32 32">
  <g>
    <path id="path1" transform="rotate(0,16,16) translate(8.01622052413098,8) scale(0.498986455177097,0.498986455177097)  " fill="#6200EE" d="M7.0053101,1.698C6.5053082,1.698 5.9063072,1.8980007 5.5063057,2.2970009 4.9073029,2.8970013 3.5092964,3.8959999 3.0092945,4.5950012 -0.78671837,9.5900002 3.1092949,17.080999 9.0033188,23.074999 14.996341,29.067999 22.288369,32.364998 27.283388,29.167998L29.480396,26.969999C29.480396,26.969999,31.178403,25.271999,29.480396,23.873999L26.683386,21.077C25.584382,20.077999 24.286377,21.475999 24.286377,21.475999 24.286377,21.475999 22.48837,23.074999 21.789367,23.473999 18.592355,25.471999 15.196342,22.774999 12.299331,19.877999 9.4023199,16.882 6.8053093,13.485001 8.7033176,10.289 9.1023178,9.5900002 10.901325,7.7910004 10.901325,7.7910004 11.700329,6.8920002 11.700329,5.5939999 10.901325,4.7950001L8.5033169,2.3970013C8.1043148,1.9980011,7.6043129,1.698,7.0053101,1.698z M6.8053093,0C7.8043137,0,8.803318,0.40000153,9.5023203,1.0990009L11.899329,3.5960007C12.998334,4.6949997 13.398335,6.3929996 12.699332,7.6919994 12.599332,7.9910011 12.19933,8.6900005 11.99933,8.9899998 11.500328,9.5900002 10.401323,10.489 10.101322,11.087999 8.9033184,13.185999 10.401323,15.683 13.398335,18.679999 15.795344,21.176999 17.693351,22.275999 19.591359,22.275999 20.090361,22.275999 20.490362,22.075999 20.890364,21.875999 21.789367,21.376999 23.187372,19.978 24.086376,19.478999 24.486377,19.178999 25.08538,19.178999 25.584382,19.178999 26.583385,19.178999 27.582389,19.579 28.281392,20.277999L30.679401,22.774999C31.678405,23.773999 32.377408,25.571999 31.778405,26.670999 31.278403,27.669999 28.781394,30.066999 28.781394,30.066998 28.781394,30.066999 28.281392,30.466998 28.182391,30.665999 26.683386,31.764998 24.785379,32.064998 22.787371,32.064998 18.193353,32.064998 12.898334,29.267999 7.904314,24.272999 0.81228638,16.981 -2.0847244,9.1900005 1.61129,3.7960014 1.7112904,3.5960007 2.1102924,3.1970005 2.1102924,3.1970005 2.1102924,3.1970005 4.7073021,0.69900131 5.8063068,0.10000038 6.106308,0 6.5053082,0 6.8053093,0z" />
  </g>
</svg>

