<?xml version="1.0" encoding="utf-8"?>
<svg xmlns="http://www.w3.org/2000/svg" height="32" width="32" viewBox="0 0 32 32">
  <g>
    <ellipse cy="16" cx="16" ry="16" rx="16" fill="#6200EE" />
    <path id="path1" transform="rotate(0,16,16) translate(6,6.00000357627869) scale(0.625,0.625)  " fill="#FFFFFF" d="M16,2.0050001C12.416,2.0050001 9.5,5.0289993 9.5,8.7459979 9.5,12.462997 12.416,15.487996 16,15.487997 19.584,15.487996 22.5,12.462997 22.5,8.7459979 22.5,5.0289993 19.584,2.0050001 16,2.0050001z M16,0C20.687,0 24.5,3.9239988 24.5,8.7459979 24.5,11.760372 23.010548,14.423184 20.74917,15.996397L20.493732,16.165044 20.752514,16.244553C27.261414,18.335448,32,24.603727,32,31.991016L30,31.999989C30,24.00401 23.719971,17.505989 16,17.505989 8.2800293,17.505989 2,24.00401 2,31.991016L0,31.999989 0,31.991016C0,24.603727,4.7385874,18.335448,11.247486,16.244553L11.506267,16.165044 11.25083,15.996397C8.9894533,14.423184 7.5,11.760372 7.5,8.7459979 7.5,3.9239988 11.313,0 16,0z" />
  </g>
</svg>

