<?xml version="1.0" encoding="utf-8"?>
<svg xmlns="http://www.w3.org/2000/svg" height="48" width="48" viewBox="0 0 48 48">
  <g>
    <path id="path1" transform="rotate(0,24,24) translate(8,8.49999445676605) scale(1.000000357628,1.000000357628)  " fill="#285397" d="M12.928009,9.7038576L11.494995,17.688965 10.039001,10.034912 7.9920044,10.034912 6.4309998,17.563965 5.2619934,10.282959 3.4039919,10.282959 5.3129883,20.563965 7.2709961,20.563965 8.7099915,12.716065 10.501984,20.971924 12.559998,20.971924 14.877991,9.7038576z M18.999989,3.999L31.871988,3.999C31.942987,3.9990003,31.999989,4.0570003,31.999989,4.127L31.999989,26.869C31.999989,26.941,31.941988,26.999001,31.869987,26.999001L18.999989,26.999001 18.999989,23.999001 28.999989,23.999001 28.999989,22.999001 18.999989,22.999001 18.999989,20.999001 28.999989,20.999001 28.999989,19.999001 18.999989,19.999001 18.999989,17.999001 28.999989,17.999001 28.999989,16.999001 18.999989,16.999001 18.999989,14.999 28.999989,14.999 28.999989,13.999 18.999989,13.999 18.999989,11.999 28.999989,11.999 28.999989,10.999 18.999989,10.999 19.021988,9.0200006 29.021988,9.0200006 28.999989,7.9990003 18.999989,7.9990003z M18,0L18,31 0,27.916016 0,3.1809084z" />
  </g>
</svg>

