<svg width="56" height="56" viewBox="0 0 56 56" fill="none" xmlns="http://www.w3.org/2000/svg">
<rect width="56" height="56" rx="20" fill="#F1E8FF"/>
<path fill-rule="evenodd" clip-rule="evenodd" d="M20.9891 35.744C21.1245 35.769 21.2652 35.7602 21.3982 35.7167C21.7367 35.5985 21.9566 35.1933 22.1935 34.7543L22.4135 34.3153L23.1242 33.0659L22.8196 33.2516L22.3627 33.4373C22.3346 33.4483 22.3058 33.4595 22.2766 33.4708C22.0624 33.554 21.8209 33.6477 21.583 33.7529C21.3496 33.8561 21.1195 33.9702 20.9216 34.0963C20.8333 34.1526 20.7514 34.2112 20.6785 34.2723C20.6076 34.3316 20.5453 34.3933 20.4938 34.4573C20.4509 34.5108 20.4155 34.5658 20.3891 34.6226C20.387 34.6271 20.3849 34.6316 20.3829 34.6361L20.3491 34.6024C20.3465 34.6075 20.3439 34.6127 20.3415 34.6179C20.3267 34.6492 20.3144 34.6815 20.3048 34.7145C20.2856 34.7799 20.2767 34.8482 20.2786 34.9168C20.2815 35.0259 20.3116 35.1325 20.366 35.2271C20.4423 35.4252 20.5919 35.5866 20.7841 35.6777C20.8498 35.7089 20.9187 35.731 20.9891 35.744ZM20.151 32.9919C20.6469 32.6692 21.2244 32.4375 21.6932 32.2494C21.731 32.2343 21.7681 32.2194 21.8043 32.2048L23.9195 31.3606C24.5607 30.0894 25.1258 28.7814 25.6116 27.4434C25.8316 26.7849 26.0347 26.1096 26.2377 25.4004C25.6116 24.5056 25.0194 23.5769 24.461 22.6314C24.1211 22.1393 23.9761 21.5388 24.0543 20.9462C24.1324 20.3536 24.4281 19.811 24.884 19.4234C25.1585 19.2072 25.4854 19.0674 25.8316 19.0182C26.3556 18.9518 26.8864 19.0686 27.3337 19.3487C27.781 19.6289 28.1173 20.055 28.2852 20.5546C28.4835 21.4932 28.395 22.4695 28.0314 23.3574C28.0314 23.3942 28.0318 23.426 28.0322 23.4551C28.0342 23.6129 28.0352 23.6879 27.9637 24.0159C27.9076 24.2735 27.844 24.5311 27.7829 24.7789C27.7519 24.9046 27.7215 25.0278 27.693 25.1472C28.8137 26.6816 30.0587 28.1216 31.4157 29.4526C32.5528 29.1598 33.7307 29.0572 34.9015 29.1487C36.3905 29.402 36.8474 30.1956 36.9659 30.8372C37.022 31.1599 37.0088 31.4909 36.9271 31.8081C36.8454 32.1254 36.6971 32.4217 36.4921 32.6775C36.2871 32.9337 36.0306 33.1441 35.7392 33.2954C35.4478 33.4466 35.1278 33.5352 34.7999 33.5555C33.8871 33.4396 33.0555 32.9732 32.4817 32.2554L32.0756 31.8502C31.6864 31.5294 31.3141 31.1917 30.9588 30.854L30.1973 30.9891C28.4061 31.3124 26.6456 31.7868 24.9348 32.4074C24.4948 33.2854 24.021 34.1465 23.5134 34.9907L23.3273 35.3115C23.0575 36.0045 22.5301 36.567 21.8551 36.8817C21.6269 36.9621 21.3864 37.002 21.1444 36.9999C20.7172 36.9966 20.3007 36.8664 19.9481 36.6258C19.5955 36.3852 19.3227 36.0452 19.1646 35.6492C19.056 35.4016 19 35.1343 19 34.8641C19 34.5938 19.056 34.3265 19.1646 34.0789C19.3227 33.6846 19.6243 33.3671 19.9857 33.1053C20.0395 33.0663 20.0947 33.0285 20.151 32.9919ZM33.495 31.421C33.8439 31.8174 34.2949 32.1121 34.7999 32.2723C34.9482 32.2615 35.0925 32.2198 35.2236 32.15C35.3547 32.0802 35.4698 31.9839 35.5614 31.8671C35.6557 31.7599 35.7244 31.6329 35.7625 31.4955C35.8006 31.358 35.807 31.2138 35.7814 31.0735C35.7645 30.9385 35.6968 30.5839 34.7999 30.4657C34.5007 30.4273 34.1998 30.408 33.899 30.4079C33.7327 30.4078 33.5666 30.4135 33.4007 30.4251C33.3923 30.4257 33.3839 30.4263 33.3754 30.4269C33.1043 30.4468 32.8341 30.4823 32.5663 30.5332L32.9555 30.8878L33.4293 31.3437C33.4508 31.3699 33.4727 31.3956 33.495 31.421ZM27.0342 22.4231C27.1543 21.9524 27.1833 21.4614 27.1176 20.9767C27.052 20.7797 26.9243 20.609 26.7535 20.4904C26.5827 20.3717 26.3781 20.3113 26.17 20.3183H26.0008C25.8606 20.3465 25.728 20.4041 25.6116 20.4871C25.2391 20.7993 25.339 21.4258 25.5299 21.8592C25.5485 21.9014 25.5679 21.9417 25.5879 21.9797L25.5896 21.983C25.5969 21.9969 25.6042 22.0104 25.6116 22.0236L25.5778 21.9898C25.5854 22.0031 25.5931 22.0164 25.6008 22.0297L25.6025 22.0327C25.6252 22.0719 25.6483 22.111 25.6716 22.1502C25.7557 22.291 25.8436 22.4313 25.9329 22.5697C25.9606 22.6128 25.9885 22.6557 26.0165 22.6983C26.1352 22.8796 26.2549 23.0567 26.3697 23.2266C26.472 23.378 26.5704 23.5237 26.6608 23.6613L26.8638 22.9353C26.9329 22.7683 26.9898 22.5971 27.0342 22.4231ZM26.203 29.5309C26.0356 29.9423 25.8605 30.3453 25.6793 30.7359C26.0974 30.6029 26.5179 30.4779 26.9405 30.3609C27.5163 30.2014 28.0961 30.0567 28.6794 29.927C29.0655 29.8411 29.4531 29.7618 29.842 29.689C29.5639 29.4076 29.2906 29.1216 29.0224 28.8309C28.6697 28.4488 28.3257 28.0589 27.9906 27.6613C27.7338 27.3567 27.4823 27.0477 27.2361 26.7343C27.228 26.7619 27.2198 26.7894 27.2116 26.8168C27.1444 27.0401 27.0727 27.2537 27.0022 27.4633C26.9663 27.5705 26.9306 27.6765 26.8961 27.7824C26.8874 27.809 26.8788 27.8357 26.8702 27.8623C26.8691 27.8658 26.868 27.8694 26.8669 27.8729C26.8658 27.8761 26.8648 27.8792 26.8638 27.8824L26.83 27.8486C26.8276 27.8556 26.8253 27.8625 26.8229 27.8694C26.8136 27.8968 26.8042 27.9242 26.7948 27.9516C26.6867 28.2662 26.5736 28.5789 26.456 28.8881C26.3738 29.1043 26.2894 29.3187 26.203 29.5309Z" fill="url(#paint0_linear_2545_788)"/>
<path fill-rule="evenodd" clip-rule="evenodd" d="M40.5 14H15.5C14.6716 14 14 14.6716 14 15.5V40.5C14 41.3284 14.6716 42 15.5 42H40.5C41.3284 42 42 41.3284 42 40.5V15.5C42 14.6716 41.3284 14 40.5 14ZM15.5 12C13.567 12 12 13.567 12 15.5V40.5C12 42.433 13.567 44 15.5 44H40.5C42.433 44 44 42.433 44 40.5V15.5C44 13.567 42.433 12 40.5 12H15.5Z" fill="url(#paint1_linear_2545_788)"/>
<defs>
<linearGradient id="paint0_linear_2545_788" x1="42" y1="12" x2="10.0665" y2="41.9376" gradientUnits="userSpaceOnUse">
<stop stop-color="#6200EE"/>
<stop offset="1" stop-color="#007EC5"/>
</linearGradient>
<linearGradient id="paint1_linear_2545_788" x1="42" y1="12" x2="10.0665" y2="41.9376" gradientUnits="userSpaceOnUse">
<stop stop-color="#6200EE"/>
<stop offset="1" stop-color="#007EC5"/>
</linearGradient>
</defs>
</svg>
