<?xml version="1.0" encoding="utf-8"?>
<svg xmlns="http://www.w3.org/2000/svg" height="48" width="48" viewBox="0 0 48 48">
  <g>
    <path id="path1" transform="rotate(0,24,24) translate(8,8.49951402809493) scale(1.00003135302613,1.00003135302613)  " fill="#207244" d="M24.998996,22L24.998996,25 29.998996,25 29.998996,22z M24.998996,18L24.998996,21 29.998996,21 29.998996,18z M24.998996,14L24.998996,17 29.998996,17 29.998996,14z M24.998996,9.9999998L24.998996,13 29.998996,13 29.998996,9.9999998z M13.116952,9.5209959L10.862012,9.647949 9.2849882,13.786865 7.915972,9.8620604 5.7820032,9.996826 7.9669974,15.200928 5.5929778,20.5 7.6219661,20.649902 9.1859891,16.835937 10.836987,20.834961 13.116952,20.999023 10.495985,15.223877z M24.998996,5.9999998L24.998996,8.9999998 29.998996,8.9999998 29.998996,5.9999998z M18.998996,3.9999998L31.616996,3.9999998C31.827994,3.9999998,31.998996,4.1739996,31.998996,4.3879998L31.998996,26.611999C31.998996,26.826,31.827994,27,31.616996,27L18.998996,27 18.998996,25 23.998996,25 23.998996,22 18.998996,22 18.998996,21 23.998996,21 23.998996,18 18.998996,18 18.998996,17 23.998996,17 23.998996,14 18.998996,13.965 18.998996,13 23.998996,13 23.998996,9.9999998 18.998996,9.9999998 18.998996,8.9999998 23.998996,8.9999998 23.998996,5.9999998 18.998996,5.9999998z M18.000001,0L18.000001,31 0,27.936035 0,3.1540523z" />
  </g>
</svg>

