<?xml version="1.0" encoding="utf-8"?>
<svg xmlns="http://www.w3.org/2000/svg" height="48" width="48" viewBox="0 0 48 48">
  <g>
    <path id="path1" transform="rotate(0,24,24) translate(12.0086224115108,12) scale(0.750000312924516,0.750000312924516)  " fill="#6200EE" d="M25.496249,3.001981L28.499249,6.0049989 23.695258,10.807973 27.09825,14.210985 16.289267,15.611985 17.690266,4.8039811 20.693265,7.8059924z M5.5812975,0C6.1813021,0,6.7822991,0.20001201,7.2822981,0.70098802L9.9842878,3.5029874C10.885287,4.4029806,10.885287,5.9049933,9.9842878,6.9049924L7.5832921,9.6069858C6.0812965,13.61098 8.2832876,17.012985 11.58629,20.415966 14.88827,23.717964 18.391268,25.919988 22.294261,24.418983L24.996251,22.016977 25.096257,21.916971C25.596255,21.516977 26.197251,21.215984 26.897248,21.215984 27.498244,21.215984 28.098248,21.416971 28.599255,21.916971L31.301245,24.618965C32.202244,25.519964,32.202244,27.020971,31.301245,28.021976L31.201239,28.121982 28.599255,30.72397C22.494258,34.02597 14.688273,30.623964 7.9832855,23.917976 1.3783033,17.212997 -2.0246894,9.4070041 1.278313,3.3030057L3.8802968,0.70098802 3.9803029,0.60000536C4.3802958,0.20001201,4.9812928,0,5.5812975,0z" />
  </g>
</svg>

