<svg id="Layer_1" width="56" height="56" data-name="Layer 1" xmlns="http://www.w3.org/2000/svg" xmlns:xlink="http://www.w3.org/1999/xlink" viewBox="0 0 56 56" >
<defs>
<style>.cls-1{fill:#f1e8ff;}.cls-2,.cls-3,.cls-4{fill-rule:evenodd;}.cls-2{fill:url(#linear-gradient);}.cls-3{fill:url(#linear-gradient-2);}.cls-4{fill:url(#linear-gradient-3);}.cls-5{fill:url(#linear-gradient-4);}.cls-6{fill:url(#linear-gradient-5);}.cls-7{fill:url(#linear-gradient-6);}</style>
<linearGradient id="linear-gradient" x1="35.21" y1="25.42" x2="24.16" y2="6.28" gradientUnits="userSpaceOnUse">
<stop offset="0" stop-color="#5f04ed"/>
<stop offset="1" stop-color="#007ec5"/>
</linearGradient>
<linearGradient id="linear-gradient-2" x1="35.21" y1="34.42" x2="24.16" y2="15.28" xlink:href="#linear-gradient"/>
<linearGradient id="linear-gradient-3" x1="35.21" y1="43.42" x2="24.16" y2="24.28" xlink:href="#linear-gradient"/>
<linearGradient id="linear-gradient-4" x1="15.67" y1="21.02" x2="12.18" y2="14.99" xlink:href="#linear-gradient"/>
<linearGradient id="linear-gradient-5" x1="15.67" y1="30.02" x2="12.18" y2="23.99" xlink:href="#linear-gradient"/>
<linearGradient id="linear-gradient-6" x1="15.67" y1="39.02" x2="12.18" y2="32.99" xlink:href="#linear-gradient"/>
</defs><rect class="cls-1" width="56" height="56" rx="20"/>
<path class="cls-2" d="M21.5,20.5h20a1.5,1.5,0,0,0,0-3h-20a1.5,1.5,0,0,0,0,3Z"/>
<path class="cls-3" d="M41.5,26.5h-20a1.5,1.5,0,0,0,0,3h20a1.5,1.5,0,0,0,0-3Z"/>
<path class="cls-4" d="M41.5,35.5h-20a1.5,1.5,0,0,0,0,3h20a1.5,1.5,0,0,0,0-3Z"/>
<rect class="cls-5" x="13" y="17.5" width="3" height="3"/>
<rect class="cls-6" x="13" y="26.5" width="3" height="3"/>
<rect class="cls-7" x="13" y="35.5" width="3" height="3"/>
</svg>