<?xml version="1.0" encoding="utf-8"?>
<svg xmlns="http://www.w3.org/2000/svg" height="32" width="32" viewBox="0 0 32 32">
  <g>
    <path id="path1" transform="rotate(0,16,16) translate(8,10) scale(0.5,0.5)  " fill="#6200EE" d="M2,5.6304955L2,22 30.001007,22 30.000185,5.6696076 15.999012,16.079988z M2,2L2,3.1340435 16.001013,13.585988 30.000059,3.1776412 30,2z M2,0L30,0C31.102997,0,32,0.89700317,32,2L32,22C32,23.102997,31.102997,24,30,24L2,24C0.89700317,24,0,23.102997,0,22L0,2C0,0.89700317,0.89700317,0,2,0z" />
  </g>
</svg>

