<?xml version="1.0" encoding="utf-8"?>
<svg xmlns="http://www.w3.org/2000/svg" height="48" width="48" viewBox="0 0 48 48">
  <g>
    <path id="path1" transform="rotate(0,24,24) translate(8.27802464031879,8) scale(0.999999880790725,0.999999880790725)  " fill="#BE1A19" d="M6.2708873,25.179424C4.1949042,25.839416 2.6769034,27.512413 2.1488899,28.156406 2.1548714,28.031406 1.9328871,28.431406 1.9328869,28.431406 1.9328871,28.431406 2.0179089,28.317409 2.1488899,28.156406 2.1468758,28.20541 2.1128792,28.326404 2.0138806,28.588403 1.6579245,29.536396 2.7608875,29.511402 2.7608875,29.511402 5.8899068,29.002403 6.2708873,25.179424 6.2708873,25.179424z M24.193808,21.957441C23.612817,21.957441 23.253808,21.994436 23.253808,21.994436 26.583815,24.909422 29.680793,24.230425 29.680793,24.230425 30.947818,24.060426 29.013802,22.886436 29.013802,22.886436 27.225842,22.093441 25.303851,21.957441 24.193808,21.957441z M12.815851,14.086479C12.815851,14.086479,11.61389,20.34445,10.110903,22.201435L18.443826,20.869442C18.443826,20.869442,14.290883,16.87046,12.815851,14.086479z M13.008843,2.5275399C12.998895,2.5265364 12.987847,2.5275397 12.977898,2.5285394 12.884882,2.5405363 12.788874,2.6505362 12.695856,2.9115369 12.695856,2.9115366 12.246883,5.2215225 13.370842,9.0605037 13.370842,9.0605037 14.328847,6.0145213 13.60784,3.6825325 13.60784,3.6825325 13.32885,2.5585377 13.008843,2.5275399z M11.959896,0.00055218116C12.846857,-0.036450189 13.645865,1.7985433 13.645865,1.798543 16.131881,7.5085132 13.781852,11.156493 13.781852,11.156493 16.242843,17.393461 21.175874,20.724445 21.175874,20.724445 25.969804,20.447447 29.465827,21.749441 29.465827,21.749441 32.216794,23.304434 31.295838,24.757421 31.295838,24.757421 28.412852,28.213405 19.945834,22.823433 19.945834,22.823433L9.031865,24.80042C7.4549045,30.599394 2.1839241,31.962387 2.1839241,31.962387 -0.32809262,32.355383 0.01590053,29.539402 0.015900303,29.539402 1.9768933,24.902425 6.9068717,23.83543 6.9068717,23.83543 8.8498591,21.605438 12.023861,11.122493 12.023861,11.122493 8.8169002,3.375535 11.069884,0.7985484 11.069884,0.79854828 11.358885,0.23254943 11.663876,0.012549346 11.959896,0.00055218116z" />
  </g>
</svg>

