<?xml version="1.0" encoding="utf-8"?>
<svg xmlns="http://www.w3.org/2000/svg" height="48" width="48" viewBox="0 0 48 48">
  <g>
    <path id="path1" transform="rotate(0,24,24) translate(8,8.49998706578129) scale(1.00000083446572,1.00000083446572)  " fill="#CB4B32" d="M8.3320198,12.107978L9.4519958,12.107978C9.9589853,12.107978,10.592972,12.731997,10.592972,13.254014L10.592972,14.306047C10.592972,14.877066,9.9829845,15.498086,9.4179964,15.498086L8.3320198,15.498086z M9.4990234,10.158935L8.7979736,10.197021 6.6069946,10.316162 6.6069946,17.155029 6.6069946,17.240967 6.6069946,20.823975 8.3319702,20.820068 8.3319702,17.240967 9.4680176,17.240967C11.161011,17.240967,12.659973,15.853027,12.659973,14.141113L12.659973,13.172119C12.659973,11.331055,11.588989,10.158935,9.4990234,10.158935z M21.080999,8.9999999C21.052999,8.9999999,21.027,9.0080003,20.999001,9.0080003L20.999001,13 24.999001,13C24.999001,10.747,23.309,8.9999999,21.080999,8.9999999z M18.999001,7.9999999L29.586,7.9999999C29.813,7.9999999,29.999001,8.1859998,29.999001,8.413L29.999001,24.590999C29.999001,24.816999,29.816,25,29.59,25L18.999001,25 18.999001,23 25.999001,23 25.999001,22 18.999001,22 18.999001,20 25.999001,20 25.999001,19 18.999001,19 18.999001,17.548C19.471001,17.743 20.215,17.854999 20.756001,17.854999 22.995001,17.854999 25.016001,16.268 24.999001,14L19.999001,14 19.999001,9.7819995C19.490999,9.7939996,19.444,9.8310002,18.999001,10.015z M18.999973,5.9999999L31.692972,5.9999999C31.861973,5.9999999,31.999973,6.1389998,31.999973,6.3099998L31.999973,20.69C31.999973,20.861,31.861973,21,31.692972,21L30.999973,21 30.999973,6.9999999 18.999973,6.9999999z M18,0L18,31 0,27.934082 0,3.0759276z" />
  </g>
</svg>

