<svg width="56" height="56" viewBox="0 0 56 56" fill="none" xmlns="http://www.w3.org/2000/svg">
<rect width="56" height="56" rx="20" fill="#F1E8FF"/>
<path d="M24.5402 29.8H30.2701C31.7898 29.8 33.2472 29.2311 34.3218 28.2184C35.3963 27.2057 36 25.8322 36 24.4C36 22.9678 35.3963 21.5943 34.3218 20.5816C33.2472 19.5689 31.7898 19 30.2701 19H22V37H24.5402V29.8ZM24.5402 21.412H30.2701C30.7085 21.38 31.1491 21.4337 31.5644 21.5698C31.9796 21.7058 32.3605 21.9214 32.6832 22.2028C33.0059 22.4842 33.2633 22.8255 33.4394 23.2051C33.6155 23.5848 33.7064 23.9947 33.7064 24.409C33.7064 24.8233 33.6155 25.2332 33.4394 25.6129C33.2633 25.9925 33.0059 26.3338 32.6832 26.6152C32.3605 26.8966 31.9796 27.1122 31.5644 27.2482C31.1491 27.3843 30.7085 27.438 30.2701 27.406H24.5402V21.412Z" fill="url(#paint0_linear_2545_785)"/>
<path fill-rule="evenodd" clip-rule="evenodd" d="M40.5 14H15.5C14.6716 14 14 14.6716 14 15.5V40.5C14 41.3284 14.6716 42 15.5 42H40.5C41.3284 42 42 41.3284 42 40.5V15.5C42 14.6716 41.3284 14 40.5 14ZM15.5 12C13.567 12 12 13.567 12 15.5V40.5C12 42.433 13.567 44 15.5 44H40.5C42.433 44 44 42.433 44 40.5V15.5C44 13.567 42.433 12 40.5 12H15.5Z" fill="url(#paint1_linear_2545_785)"/>
<defs>
<linearGradient id="paint0_linear_2545_785" x1="42" y1="12" x2="10.0665" y2="41.9376" gradientUnits="userSpaceOnUse">
<stop stop-color="#6200EE"/>
<stop offset="1" stop-color="#007EC5"/>
</linearGradient>
<linearGradient id="paint1_linear_2545_785" x1="42" y1="12" x2="10.0665" y2="41.9376" gradientUnits="userSpaceOnUse">
<stop stop-color="#6200EE"/>
<stop offset="1" stop-color="#007EC5"/>
</linearGradient>
</defs>
</svg>
