<svg width="56" height="56" viewBox="0 0 56 56" fill="none" xmlns="http://www.w3.org/2000/svg">
<path d="M36 0H20C8.9543 0 0 8.9543 0 20V36C0 47.0457 8.9543 56 20 56H36C47.0457 56 56 47.0457 56 36V20C56 8.9543 47.0457 0 36 0Z" fill="#F1E8FF"/>
<path opacity="0.3" fill-rule="evenodd" clip-rule="evenodd" d="M36.6395 17.3498C35.241 16.2151 33.6327 15.367 31.9064 14.854C30.1801 14.3409 28.3697 14.1728 26.5785 14.3594C24.7872 14.546 23.0503 15.0836 21.4668 15.9415C19.8834 16.7993 18.4844 17.9607 17.3498 19.3592C16.2151 20.7577 15.367 22.366 14.854 24.0923C14.3409 25.8186 14.1728 27.629 14.3594 29.4202C14.546 31.2114 15.0836 32.9484 15.9415 34.5318C16.7993 36.1153 17.9607 37.5143 19.3592 38.6489C20.7577 39.7836 22.366 40.6316 24.0923 41.1447C25.8186 41.6578 27.629 41.8258 29.4202 41.6393C31.2114 41.4527 32.9484 40.9151 34.5318 40.0572C36.1153 39.1994 37.5143 38.038 38.6489 36.6395C39.7836 35.241 40.6316 33.6327 41.1447 31.9064C41.6578 30.1801 41.8259 28.3697 41.6393 26.5785C41.4527 24.7872 40.9151 23.0503 40.0572 21.4668C39.1994 19.8834 38.038 18.4844 36.6395 17.3498ZM32.5576 12.6631C34.5715 13.2617 36.4479 14.2511 38.0795 15.5748C39.7111 16.8986 41.066 18.5307 42.0669 20.3781C43.0677 22.2255 43.6949 24.2519 43.9126 26.3416C44.1303 28.4314 43.9342 30.5436 43.3356 32.5576C42.737 34.5716 41.7476 36.4479 40.4239 38.0795C39.1001 39.7111 37.468 41.066 35.6206 42.0669C33.7732 43.0677 31.7468 43.6949 29.657 43.9126C27.5673 44.1303 25.4551 43.9342 23.4411 43.3356C21.4271 42.737 19.5508 41.7476 17.9192 40.4239C16.2875 39.1001 14.9326 37.468 13.9318 35.6206C12.931 33.7732 12.3038 31.7468 12.0861 29.657C11.8684 27.5673 12.0645 25.4551 12.6631 23.4411C13.2617 21.4271 14.2511 19.5508 15.5748 17.9192C16.8986 16.2875 18.5307 14.9326 20.3781 13.9318C22.2255 12.931 24.2519 12.3038 26.3416 12.0861C28.4314 11.8684 30.5436 12.0645 32.5576 12.6631Z" fill="url(#paint0_linear_3073_850)"/>
<path fill-rule="evenodd" clip-rule="evenodd" d="M38.5145 19.1962C39.6709 20.5768 40.544 22.1717 41.084 23.8897C41.624 25.6078 41.8203 27.4154 41.6618 29.2093C41.5032 31.0032 40.9928 32.7483 40.1598 34.345C39.3269 35.9417 38.1875 37.3587 36.8069 38.515C35.4263 39.6714 33.8314 40.5445 32.1134 41.0845C30.3954 41.6245 28.5878 41.8209 26.7939 41.6623C24.9999 41.5037 23.2548 40.9934 21.6581 40.1604C20.0614 39.3274 18.6445 38.1881 17.4881 36.8075L15.7359 38.2751C17.085 39.8858 18.7381 41.215 20.6009 42.1868C22.4637 43.1586 24.4997 43.7541 26.5926 43.939C28.6855 44.124 30.7944 43.895 32.7987 43.265C34.8031 42.635 36.6638 41.6163 38.2745 40.2672C39.8852 38.9181 41.2144 37.265 42.1863 35.4022C43.1581 33.5394 43.7535 31.5034 43.9385 29.4105C44.1235 27.3176 43.8944 25.2088 43.2644 23.2044C42.6344 21.2 41.6158 19.3393 40.2667 17.7286L38.5145 19.1962Z" fill="url(#paint1_linear_3073_850)"/>
<path d="M43.9987 18.0322C43.9987 20.5568 41.9521 22.6034 39.4274 22.6034C36.9028 22.6034 34.8562 20.5568 34.8562 18.0322C34.8562 15.5076 36.9028 13.4609 39.4274 13.4609C41.9521 13.4609 43.9987 15.5076 43.9987 18.0322Z" fill="url(#paint2_linear_3073_850)"/>
<path fill-rule="evenodd" clip-rule="evenodd" d="M39.4274 21.4606C41.3209 21.4606 42.8559 19.9256 42.8559 18.0322C42.8559 16.1387 41.3209 14.6037 39.4274 14.6037C37.534 14.6037 35.999 16.1387 35.999 18.0322C35.999 19.9256 37.534 21.4606 39.4274 21.4606ZM39.4274 22.6034C41.9521 22.6034 43.9987 20.5568 43.9987 18.0322C43.9987 15.5076 41.9521 13.4609 39.4274 13.4609C36.9028 13.4609 34.8562 15.5076 34.8562 18.0322C34.8562 20.5568 36.9028 22.6034 39.4274 22.6034Z" fill="url(#paint3_linear_3073_850)"/>
<path d="M21.1425 37.4599C21.1425 39.9846 19.0959 42.0312 16.5712 42.0312C14.0466 42.0312 12 39.9846 12 37.4599C12 34.9353 14.0466 32.8887 16.5712 32.8887C19.0959 32.8887 21.1425 34.9353 21.1425 37.4599Z" fill="url(#paint4_linear_3073_850)"/>
<path fill-rule="evenodd" clip-rule="evenodd" d="M16.5712 40.8884C18.4647 40.8884 19.9997 39.3534 19.9997 37.4599C19.9997 35.5665 18.4647 34.0315 16.5712 34.0315C14.6778 34.0315 13.1428 35.5665 13.1428 37.4599C13.1428 39.3534 14.6778 40.8884 16.5712 40.8884ZM16.5712 42.0312C19.0959 42.0312 21.1425 39.9846 21.1425 37.4599C21.1425 34.9353 19.0959 32.8887 16.5712 32.8887C14.0466 32.8887 12 34.9353 12 37.4599C12 39.9846 14.0466 42.0312 16.5712 42.0312Z" fill="url(#paint5_linear_3073_850)"/>
<path d="M42.2844 18.0328C42.2844 19.6107 41.0052 20.8898 39.4273 20.8898C37.8494 20.8898 36.5703 19.6107 36.5703 18.0328C36.5703 16.4549 37.8494 15.1758 39.4273 15.1758C41.0052 15.1758 42.2844 16.4549 42.2844 18.0328Z" fill="white"/>
<path d="M19.4289 37.4586C19.4289 39.0365 18.1498 40.3156 16.5719 40.3156C14.994 40.3156 13.7148 39.0365 13.7148 37.4586C13.7148 35.8807 14.994 34.6016 16.5719 34.6016C18.1498 34.6016 19.4289 35.8807 19.4289 37.4586Z" fill="white"/>
<g opacity="0.3">
<path d="M42.2844 18.0328C42.2844 19.6107 41.0052 20.8898 39.4273 20.8898C37.8494 20.8898 36.5703 19.6107 36.5703 18.0328C36.5703 16.4549 37.8494 15.1758 39.4273 15.1758C41.0052 15.1758 42.2844 16.4549 42.2844 18.0328Z" fill="white"/>
<path d="M42.2844 18.0328C42.2844 19.6107 41.0052 20.8898 39.4273 20.8898C37.8494 20.8898 36.5703 19.6107 36.5703 18.0328C36.5703 16.4549 37.8494 15.1758 39.4273 15.1758C41.0052 15.1758 42.2844 16.4549 42.2844 18.0328Z" fill="url(#paint6_linear_3073_850)"/>
</g>
<g opacity="0.3">
<path d="M19.4289 37.4586C19.4289 39.0365 18.1498 40.3156 16.5719 40.3156C14.994 40.3156 13.7148 39.0365 13.7148 37.4586C13.7148 35.8807 14.994 34.6016 16.5719 34.6016C18.1498 34.6016 19.4289 35.8807 19.4289 37.4586Z" fill="white"/>
<path d="M19.4289 37.4586C19.4289 39.0365 18.1498 40.3156 16.5719 40.3156C14.994 40.3156 13.7148 39.0365 13.7148 37.4586C13.7148 35.8807 14.994 34.6016 16.5719 34.6016C18.1498 34.6016 19.4289 35.8807 19.4289 37.4586Z" fill="url(#paint7_linear_3073_850)"/>
</g>
<path d="M23.5391 27.4453H24.1211C24.3268 27.4453 24.4961 27.4102 24.6289 27.3398C24.7643 27.2669 24.8646 27.168 24.9297 27.043C24.9974 26.9154 25.0312 26.7682 25.0312 26.6016C25.0312 26.4375 25.0013 26.2956 24.9414 26.1758C24.8815 26.0534 24.7904 25.9596 24.668 25.8945C24.5482 25.8268 24.3945 25.793 24.207 25.793C24.056 25.793 23.9167 25.8229 23.7891 25.8828C23.6641 25.9427 23.5638 26.0286 23.4883 26.1406C23.4154 26.25 23.3789 26.3815 23.3789 26.5352H22.3438C22.3438 26.2279 22.4245 25.9583 22.5859 25.7266C22.75 25.4922 22.9714 25.3086 23.25 25.1758C23.5286 25.043 23.8398 24.9766 24.1836 24.9766C24.5586 24.9766 24.8867 25.0391 25.168 25.1641C25.4518 25.2865 25.6719 25.4674 25.8281 25.707C25.987 25.9466 26.0664 26.2435 26.0664 26.5977C26.0664 26.7669 26.026 26.9362 25.9453 27.1055C25.8672 27.2721 25.7513 27.4232 25.5977 27.5586C25.4466 27.6914 25.2604 27.7995 25.0391 27.8828C24.8203 27.9635 24.569 28.0039 24.2852 28.0039H23.5391V27.4453ZM23.5391 28.2422V27.6914H24.2852C24.6055 27.6914 24.8828 27.7292 25.1172 27.8047C25.3542 27.8776 25.5495 27.9818 25.7031 28.1172C25.8568 28.25 25.9701 28.4049 26.043 28.582C26.1185 28.7591 26.1562 28.9492 26.1562 29.1523C26.1562 29.418 26.1068 29.6549 26.0078 29.8633C25.9089 30.069 25.7695 30.2435 25.5898 30.3867C25.4128 30.5299 25.2044 30.6393 24.9648 30.7148C24.7253 30.7878 24.4661 30.8242 24.1875 30.8242C23.9453 30.8242 23.7096 30.7917 23.4805 30.7266C23.2539 30.6589 23.0495 30.5586 22.8672 30.4258C22.6849 30.2904 22.5404 30.1211 22.4336 29.918C22.3268 29.7122 22.2734 29.474 22.2734 29.2031H23.3086C23.3086 29.3594 23.3464 29.4987 23.4219 29.6211C23.5 29.7435 23.6068 29.8398 23.7422 29.9102C23.8802 29.9779 24.0352 30.0117 24.207 30.0117C24.3971 30.0117 24.5599 29.9779 24.6953 29.9102C24.8333 29.8398 24.9388 29.7409 25.0117 29.6133C25.0846 29.4831 25.1211 29.3281 25.1211 29.1484C25.1211 28.9349 25.0807 28.7617 25 28.6289C24.9193 28.4961 24.8034 28.3984 24.6523 28.3359C24.5039 28.2734 24.3268 28.2422 24.1211 28.2422H23.5391ZM29.0898 27.9023V28.7188H26.9531V27.9023H29.0898ZM32.7891 25.0117H32.9297V25.8438H32.8633C32.5482 25.8438 32.2708 25.8919 32.0312 25.9883C31.7943 26.0846 31.5964 26.2201 31.4375 26.3945C31.2812 26.5664 31.1628 26.7708 31.082 27.0078C31.0013 27.2422 30.9609 27.4987 30.9609 27.7773V28.6992C30.9609 28.9154 30.9831 29.1055 31.0273 29.2695C31.0742 29.431 31.138 29.5677 31.2188 29.6797C31.3021 29.7891 31.3984 29.8711 31.5078 29.9258C31.6198 29.9805 31.7422 30.0078 31.875 30.0078C32.0078 30.0078 32.1276 29.9805 32.2344 29.9258C32.3411 29.8711 32.4323 29.7943 32.5078 29.6953C32.5859 29.5938 32.6445 29.4753 32.6836 29.3398C32.7253 29.2044 32.7461 29.056 32.7461 28.8945C32.7461 28.7357 32.7266 28.5885 32.6875 28.4531C32.6484 28.3177 32.5911 28.1992 32.5156 28.0977C32.4401 27.9935 32.3464 27.9141 32.2344 27.8594C32.125 27.8021 32 27.7734 31.8594 27.7734C31.6771 27.7734 31.5143 27.8164 31.3711 27.9023C31.2279 27.9857 31.1146 28.0951 31.0312 28.2305C30.9479 28.3659 30.9023 28.5091 30.8945 28.6602L30.5469 28.4883C30.5599 28.2669 30.6068 28.0638 30.6875 27.8789C30.7708 27.694 30.8815 27.5326 31.0195 27.3945C31.1602 27.2565 31.3255 27.1497 31.5156 27.0742C31.7083 26.9987 31.9219 26.9609 32.1562 26.9609C32.4271 26.9609 32.6641 27.013 32.8672 27.1172C33.0703 27.2188 33.2383 27.3581 33.3711 27.5352C33.5065 27.7122 33.6081 27.9167 33.6758 28.1484C33.7435 28.3776 33.7773 28.6198 33.7773 28.875C33.7773 29.1484 33.7331 29.4036 33.6445 29.6406C33.5586 29.8776 33.4336 30.0846 33.2695 30.2617C33.1055 30.4388 32.9076 30.5768 32.6758 30.6758C32.444 30.7747 32.1836 30.8242 31.8945 30.8242C31.5898 30.8242 31.3164 30.7669 31.0742 30.6523C30.8346 30.5378 30.6289 30.3789 30.457 30.1758C30.2852 29.9727 30.1536 29.7357 30.0625 29.4648C29.9714 29.194 29.9258 28.901 29.9258 28.5859V28.1719C29.9258 27.7266 29.987 27.3125 30.1094 26.9297C30.2318 26.5469 30.4128 26.2122 30.6523 25.9258C30.8945 25.6367 31.194 25.4128 31.5508 25.2539C31.9076 25.0924 32.3203 25.0117 32.7891 25.0117Z" fill="black"/>
<path d="M23.5391 27.4453H24.1211C24.3268 27.4453 24.4961 27.4102 24.6289 27.3398C24.7643 27.2669 24.8646 27.168 24.9297 27.043C24.9974 26.9154 25.0312 26.7682 25.0312 26.6016C25.0312 26.4375 25.0013 26.2956 24.9414 26.1758C24.8815 26.0534 24.7904 25.9596 24.668 25.8945C24.5482 25.8268 24.3945 25.793 24.207 25.793C24.056 25.793 23.9167 25.8229 23.7891 25.8828C23.6641 25.9427 23.5638 26.0286 23.4883 26.1406C23.4154 26.25 23.3789 26.3815 23.3789 26.5352H22.3438C22.3438 26.2279 22.4245 25.9583 22.5859 25.7266C22.75 25.4922 22.9714 25.3086 23.25 25.1758C23.5286 25.043 23.8398 24.9766 24.1836 24.9766C24.5586 24.9766 24.8867 25.0391 25.168 25.1641C25.4518 25.2865 25.6719 25.4674 25.8281 25.707C25.987 25.9466 26.0664 26.2435 26.0664 26.5977C26.0664 26.7669 26.026 26.9362 25.9453 27.1055C25.8672 27.2721 25.7513 27.4232 25.5977 27.5586C25.4466 27.6914 25.2604 27.7995 25.0391 27.8828C24.8203 27.9635 24.569 28.0039 24.2852 28.0039H23.5391V27.4453ZM23.5391 28.2422V27.6914H24.2852C24.6055 27.6914 24.8828 27.7292 25.1172 27.8047C25.3542 27.8776 25.5495 27.9818 25.7031 28.1172C25.8568 28.25 25.9701 28.4049 26.043 28.582C26.1185 28.7591 26.1562 28.9492 26.1562 29.1523C26.1562 29.418 26.1068 29.6549 26.0078 29.8633C25.9089 30.069 25.7695 30.2435 25.5898 30.3867C25.4128 30.5299 25.2044 30.6393 24.9648 30.7148C24.7253 30.7878 24.4661 30.8242 24.1875 30.8242C23.9453 30.8242 23.7096 30.7917 23.4805 30.7266C23.2539 30.6589 23.0495 30.5586 22.8672 30.4258C22.6849 30.2904 22.5404 30.1211 22.4336 29.918C22.3268 29.7122 22.2734 29.474 22.2734 29.2031H23.3086C23.3086 29.3594 23.3464 29.4987 23.4219 29.6211C23.5 29.7435 23.6068 29.8398 23.7422 29.9102C23.8802 29.9779 24.0352 30.0117 24.207 30.0117C24.3971 30.0117 24.5599 29.9779 24.6953 29.9102C24.8333 29.8398 24.9388 29.7409 25.0117 29.6133C25.0846 29.4831 25.1211 29.3281 25.1211 29.1484C25.1211 28.9349 25.0807 28.7617 25 28.6289C24.9193 28.4961 24.8034 28.3984 24.6523 28.3359C24.5039 28.2734 24.3268 28.2422 24.1211 28.2422H23.5391ZM29.0898 27.9023V28.7188H26.9531V27.9023H29.0898ZM32.7891 25.0117H32.9297V25.8438H32.8633C32.5482 25.8438 32.2708 25.8919 32.0312 25.9883C31.7943 26.0846 31.5964 26.2201 31.4375 26.3945C31.2812 26.5664 31.1628 26.7708 31.082 27.0078C31.0013 27.2422 30.9609 27.4987 30.9609 27.7773V28.6992C30.9609 28.9154 30.9831 29.1055 31.0273 29.2695C31.0742 29.431 31.138 29.5677 31.2188 29.6797C31.3021 29.7891 31.3984 29.8711 31.5078 29.9258C31.6198 29.9805 31.7422 30.0078 31.875 30.0078C32.0078 30.0078 32.1276 29.9805 32.2344 29.9258C32.3411 29.8711 32.4323 29.7943 32.5078 29.6953C32.5859 29.5938 32.6445 29.4753 32.6836 29.3398C32.7253 29.2044 32.7461 29.056 32.7461 28.8945C32.7461 28.7357 32.7266 28.5885 32.6875 28.4531C32.6484 28.3177 32.5911 28.1992 32.5156 28.0977C32.4401 27.9935 32.3464 27.9141 32.2344 27.8594C32.125 27.8021 32 27.7734 31.8594 27.7734C31.6771 27.7734 31.5143 27.8164 31.3711 27.9023C31.2279 27.9857 31.1146 28.0951 31.0312 28.2305C30.9479 28.3659 30.9023 28.5091 30.8945 28.6602L30.5469 28.4883C30.5599 28.2669 30.6068 28.0638 30.6875 27.8789C30.7708 27.694 30.8815 27.5326 31.0195 27.3945C31.1602 27.2565 31.3255 27.1497 31.5156 27.0742C31.7083 26.9987 31.9219 26.9609 32.1562 26.9609C32.4271 26.9609 32.6641 27.013 32.8672 27.1172C33.0703 27.2188 33.2383 27.3581 33.3711 27.5352C33.5065 27.7122 33.6081 27.9167 33.6758 28.1484C33.7435 28.3776 33.7773 28.6198 33.7773 28.875C33.7773 29.1484 33.7331 29.4036 33.6445 29.6406C33.5586 29.8776 33.4336 30.0846 33.2695 30.2617C33.1055 30.4388 32.9076 30.5768 32.6758 30.6758C32.444 30.7747 32.1836 30.8242 31.8945 30.8242C31.5898 30.8242 31.3164 30.7669 31.0742 30.6523C30.8346 30.5378 30.6289 30.3789 30.457 30.1758C30.2852 29.9727 30.1536 29.7357 30.0625 29.4648C29.9714 29.194 29.9258 28.901 29.9258 28.5859V28.1719C29.9258 27.7266 29.987 27.3125 30.1094 26.9297C30.2318 26.5469 30.4128 26.2122 30.6523 25.9258C30.8945 25.6367 31.194 25.4128 31.5508 25.2539C31.9076 25.0924 32.3203 25.0117 32.7891 25.0117Z" fill="url(#paint8_linear_3073_850)"/>
<defs>
<linearGradient id="paint0_linear_3073_850" x1="35.874" y1="12" x2="9.46854" y2="25.9248" gradientUnits="userSpaceOnUse">
<stop stop-color="#6200EE"/>
<stop offset="1" stop-color="#007EC5"/>
</linearGradient>
<linearGradient id="paint1_linear_3073_850" x1="35.8755" y1="13.4609" x2="10.0193" y2="27.748" gradientUnits="userSpaceOnUse">
<stop stop-color="#6200EE"/>
<stop offset="1" stop-color="#007EC5"/>
</linearGradient>
<linearGradient id="paint2_linear_3073_850" x1="35.8755" y1="13.4609" x2="10.0193" y2="27.748" gradientUnits="userSpaceOnUse">
<stop stop-color="#6200EE"/>
<stop offset="1" stop-color="#007EC5"/>
</linearGradient>
<linearGradient id="paint3_linear_3073_850" x1="35.8755" y1="13.4609" x2="10.0193" y2="27.748" gradientUnits="userSpaceOnUse">
<stop stop-color="#6200EE"/>
<stop offset="1" stop-color="#007EC5"/>
</linearGradient>
<linearGradient id="paint4_linear_3073_850" x1="35.8755" y1="13.4609" x2="10.0193" y2="27.748" gradientUnits="userSpaceOnUse">
<stop stop-color="#6200EE"/>
<stop offset="1" stop-color="#007EC5"/>
</linearGradient>
<linearGradient id="paint5_linear_3073_850" x1="35.8755" y1="13.4609" x2="10.0193" y2="27.748" gradientUnits="userSpaceOnUse">
<stop stop-color="#6200EE"/>
<stop offset="1" stop-color="#007EC5"/>
</linearGradient>
<linearGradient id="paint6_linear_3073_850" x1="40.8335" y1="15.1758" x2="36.1183" y2="17.6623" gradientUnits="userSpaceOnUse">
<stop stop-color="#6200EE"/>
<stop offset="1" stop-color="#007EC5"/>
</linearGradient>
<linearGradient id="paint7_linear_3073_850" x1="17.9781" y1="34.6016" x2="13.2628" y2="37.0881" gradientUnits="userSpaceOnUse">
<stop stop-color="#6200EE"/>
<stop offset="1" stop-color="#007EC5"/>
</linearGradient>
<linearGradient id="paint8_linear_3073_850" x1="31.6992" y1="23.7461" x2="23.0226" y2="30.3552" gradientUnits="userSpaceOnUse">
<stop stop-color="#6200EE"/>
<stop offset="1" stop-color="#007EC5"/>
</linearGradient>
</defs>
</svg>
