<svg width="56" height="56" viewBox="0 0 56 56" fill="none" xmlns="http://www.w3.org/2000/svg">
<path d="M36 0H20C8.9543 0 0 8.9543 0 20V36C0 47.0457 8.9543 56 20 56H36C47.0457 56 56 47.0457 56 36V20C56 8.9543 47.0457 0 36 0Z" fill="#F1E8FF"/>
<path opacity="0.3" fill-rule="evenodd" clip-rule="evenodd" d="M35.2381 19.3513C33.0276 17.9778 30.4721 17.2616 27.8698 17.2863C25.2675 17.311 22.726 18.0756 20.5421 19.4908C18.3581 20.906 16.6219 22.9134 15.5362 25.2785C14.4505 27.6435 14.0602 30.2687 14.4107 32.8474C14.7098 35.0475 15.5377 37.1363 16.8164 38.9378C17.1817 39.4525 17.1248 40.171 16.6423 40.5779V40.5779C16.1598 40.9848 15.4351 40.9258 15.0636 40.4154C13.5087 38.279 12.5034 35.7853 12.1458 33.1553C11.7369 30.1468 12.1923 27.0841 13.4589 24.3249C14.7256 21.5656 16.7512 19.2237 19.2991 17.5726C21.847 15.9216 24.8121 15.0295 27.8481 15.0007C30.8841 14.9719 33.8656 15.8075 36.4444 17.4099C39.0232 19.0122 41.0929 21.3153 42.4117 24.05C43.7305 26.7847 44.244 29.8382 43.8922 32.8539C43.5847 35.4902 42.6269 38.0026 41.1128 40.1681C40.7511 40.6854 40.0277 40.7582 39.5375 40.3605V40.3605C39.0474 39.9629 38.9768 39.2456 39.3323 38.724C40.5765 36.8986 41.3646 34.7945 41.6219 32.589C41.9234 30.0042 41.4833 27.3869 40.3529 25.0429C39.2225 22.6988 37.4485 20.7248 35.2381 19.3513Z" fill="url(#paint0_linear_3073_847)"/>
<path fill-rule="evenodd" clip-rule="evenodd" d="M23.2023 15.7362C25.2068 15.1062 27.3157 14.8771 29.4087 15.0621C31.5017 15.2471 33.5378 15.8426 35.4007 16.8144C37.2635 17.7863 38.9167 19.1156 40.2659 20.7264L38.5136 22.194C37.3572 20.8134 35.9402 19.674 34.3434 18.8409C32.7467 18.0079 31.0015 17.4975 29.2075 17.339C27.4135 17.1804 25.6058 17.3767 23.8877 17.9168C22.1696 18.4568 20.5747 19.33 19.194 20.4864C17.8134 21.6428 16.674 23.0598 15.8409 24.6566C15.0079 26.2533 14.4975 27.9985 14.339 29.7925C14.1804 31.5865 14.3767 33.3941 14.9168 35.1123C15.3424 36.4663 15.9749 37.7438 16.7899 38.9003C17.1535 39.4162 17.0941 40.1345 16.6102 40.5398V40.5398C16.1264 40.9451 15.4019 40.8836 15.0322 40.372C14.0278 38.9823 13.2519 37.4381 12.7362 35.7976C12.1062 33.7932 11.8771 31.6842 12.0621 29.5913C12.2471 27.4983 12.8426 25.4622 13.8144 23.5993C14.7863 21.7365 16.1156 20.0833 17.7264 18.7341C19.3371 17.3849 21.1979 16.3663 23.2023 15.7362Z" fill="url(#paint1_linear_3073_847)"/>
<path d="M44 21.0312C44 23.556 41.9533 25.6027 39.4286 25.6027C36.9038 25.6027 34.8571 23.556 34.8571 21.0312C34.8571 18.5065 36.9038 16.4598 39.4286 16.4598C41.9533 16.4598 44 18.5065 44 21.0312Z" fill="url(#paint2_linear_3073_847)"/>
<path d="M42.2865 21.0329C42.2865 22.6109 41.0074 23.8901 39.4294 23.8901C37.8515 23.8901 36.5723 22.6109 36.5723 21.0329C36.5723 19.455 37.8515 18.1758 39.4294 18.1758C41.0074 18.1758 42.2865 19.455 42.2865 21.0329Z" fill="white"/>
<g opacity="0.3">
<path d="M42.2865 21.0329C42.2865 22.6109 41.0074 23.8901 39.4294 23.8901C37.8515 23.8901 36.5723 22.6109 36.5723 21.0329C36.5723 19.455 37.8515 18.1758 39.4294 18.1758C41.0074 18.1758 42.2865 19.455 42.2865 21.0329Z" fill="white"/>
<path d="M42.2865 21.0329C42.2865 22.6109 41.0074 23.8901 39.4294 23.8901C37.8515 23.8901 36.5723 22.6109 36.5723 21.0329C36.5723 19.455 37.8515 18.1758 39.4294 18.1758C41.0074 18.1758 42.2865 19.455 42.2865 21.0329Z" fill="url(#paint3_linear_3073_847)"/>
</g>
<path d="M22.5391 31.6992H23.1211C23.3268 31.6992 23.4961 31.6641 23.6289 31.5938C23.7643 31.5208 23.8646 31.4219 23.9297 31.2969C23.9974 31.1693 24.0312 31.0221 24.0312 30.8555C24.0312 30.6914 24.0013 30.5495 23.9414 30.4297C23.8815 30.3073 23.7904 30.2135 23.668 30.1484C23.5482 30.0807 23.3945 30.0469 23.207 30.0469C23.056 30.0469 22.9167 30.0768 22.7891 30.1367C22.6641 30.1966 22.5638 30.2826 22.4883 30.3945C22.4154 30.5039 22.3789 30.6354 22.3789 30.7891H21.3438C21.3438 30.4818 21.4245 30.2122 21.5859 29.9805C21.75 29.7461 21.9714 29.5625 22.25 29.4297C22.5286 29.2969 22.8398 29.2305 23.1836 29.2305C23.5586 29.2305 23.8867 29.293 24.168 29.418C24.4518 29.5404 24.6719 29.7214 24.8281 29.9609C24.987 30.2005 25.0664 30.4974 25.0664 30.8516C25.0664 31.0208 25.026 31.1901 24.9453 31.3594C24.8672 31.526 24.7513 31.6771 24.5977 31.8125C24.4466 31.9453 24.2604 32.0534 24.0391 32.1367C23.8203 32.2174 23.569 32.2578 23.2852 32.2578H22.5391V31.6992ZM22.5391 32.4961V31.9453H23.2852C23.6055 31.9453 23.8828 31.9831 24.1172 32.0586C24.3542 32.1315 24.5495 32.2357 24.7031 32.3711C24.8568 32.5039 24.9701 32.6589 25.043 32.8359C25.1185 33.013 25.1562 33.2031 25.1562 33.4062C25.1562 33.6719 25.1068 33.9089 25.0078 34.1172C24.9089 34.3229 24.7695 34.4974 24.5898 34.6406C24.4128 34.7839 24.2044 34.8932 23.9648 34.9688C23.7253 35.0417 23.4661 35.0781 23.1875 35.0781C22.9453 35.0781 22.7096 35.0456 22.4805 34.9805C22.2539 34.9128 22.0495 34.8125 21.8672 34.6797C21.6849 34.5443 21.5404 34.375 21.4336 34.1719C21.3268 33.9661 21.2734 33.7279 21.2734 33.457H22.3086C22.3086 33.6133 22.3464 33.7526 22.4219 33.875C22.5 33.9974 22.6068 34.0938 22.7422 34.1641C22.8802 34.2318 23.0352 34.2656 23.207 34.2656C23.3971 34.2656 23.5599 34.2318 23.6953 34.1641C23.8333 34.0938 23.9388 33.9948 24.0117 33.8672C24.0846 33.737 24.1211 33.582 24.1211 33.4023C24.1211 33.1888 24.0807 33.0156 24 32.8828C23.9193 32.75 23.8034 32.6523 23.6523 32.5898C23.5039 32.5273 23.3268 32.4961 23.1211 32.4961H22.5391ZM29.7461 31.668V32.625C29.7461 33.0625 29.7018 33.4362 29.6133 33.7461C29.5247 34.056 29.3971 34.3099 29.2305 34.5078C29.0638 34.7031 28.8646 34.8477 28.6328 34.9414C28.401 35.0326 28.1432 35.0781 27.8594 35.0781C27.6328 35.0781 27.4219 35.0495 27.2266 34.9922C27.0312 34.9323 26.8555 34.8411 26.6992 34.7188C26.5456 34.5938 26.4128 34.4349 26.3008 34.2422C26.1914 34.0495 26.1068 33.819 26.0469 33.5508C25.9896 33.2826 25.9609 32.974 25.9609 32.625V31.668C25.9609 31.2305 26.0052 30.8581 26.0938 30.5508C26.1849 30.2435 26.3138 29.9922 26.4805 29.7969C26.6471 29.6016 26.8464 29.4596 27.0781 29.3711C27.3099 29.2799 27.5677 29.2344 27.8516 29.2344C28.0807 29.2344 28.2917 29.263 28.4844 29.3203C28.6797 29.3776 28.8542 29.4674 29.0078 29.5898C29.1641 29.7096 29.2969 29.8659 29.4062 30.0586C29.5156 30.2487 29.599 30.4779 29.6562 30.7461C29.7161 31.0117 29.7461 31.319 29.7461 31.668ZM28.7148 32.7656V31.5234C28.7148 31.3047 28.7018 31.1146 28.6758 30.9531C28.6523 30.7891 28.6172 30.6497 28.5703 30.5352C28.5234 30.4206 28.4648 30.3281 28.3945 30.2578C28.3242 30.1849 28.2435 30.1315 28.1523 30.0977C28.0612 30.0638 27.9609 30.0469 27.8516 30.0469C27.7161 30.0469 27.5951 30.0742 27.4883 30.1289C27.3815 30.181 27.2917 30.2643 27.2188 30.3789C27.1458 30.4935 27.0898 30.6458 27.0508 30.8359C27.0143 31.0234 26.9961 31.2526 26.9961 31.5234V32.7656C26.9961 32.9844 27.0078 33.1758 27.0312 33.3398C27.0573 33.5039 27.0938 33.6445 27.1406 33.7617C27.1901 33.8789 27.2487 33.9753 27.3164 34.0508C27.3867 34.1237 27.4674 34.1784 27.5586 34.2148C27.6497 34.2487 27.75 34.2656 27.8594 34.2656C27.9974 34.2656 28.1185 34.2383 28.2227 34.1836C28.3294 34.1289 28.4193 34.043 28.4922 33.9258C28.5651 33.806 28.6198 33.651 28.6562 33.4609C28.6953 33.2682 28.7148 33.0365 28.7148 32.7656ZM30.5234 30.707V30.4062C30.5234 30.1901 30.5703 29.9935 30.6641 29.8164C30.7578 29.6393 30.8945 29.4974 31.0742 29.3906C31.2565 29.2839 31.4779 29.2305 31.7383 29.2305C32.0039 29.2305 32.2266 29.2839 32.4062 29.3906C32.5885 29.4974 32.7253 29.6393 32.8164 29.8164C32.9102 29.9935 32.957 30.1901 32.957 30.4062V30.707C32.957 30.918 32.9102 31.112 32.8164 31.2891C32.7253 31.4661 32.5898 31.6081 32.4102 31.7148C32.2305 31.8216 32.0091 31.875 31.7461 31.875C31.4831 31.875 31.2604 31.8216 31.0781 31.7148C30.8958 31.6081 30.7578 31.4661 30.6641 31.2891C30.5703 31.112 30.5234 30.918 30.5234 30.707ZM31.2227 30.4062V30.707C31.2227 30.806 31.2409 30.8997 31.2773 30.9883C31.3164 31.0742 31.375 31.1445 31.4531 31.1992C31.5312 31.2539 31.6289 31.2812 31.7461 31.2812C31.8633 31.2812 31.9583 31.2539 32.0312 31.1992C32.1068 31.1445 32.1628 31.0742 32.1992 30.9883C32.2383 30.8997 32.2578 30.806 32.2578 30.707V30.4062C32.2578 30.3047 32.2383 30.2096 32.1992 30.1211C32.1628 30.0326 32.1055 29.9609 32.0273 29.9062C31.9518 29.8516 31.8555 29.8242 31.7383 29.8242C31.6237 29.8242 31.5273 29.8516 31.4492 29.9062C31.3737 29.9609 31.3164 30.0326 31.2773 30.1211C31.2409 30.2096 31.2227 30.3047 31.2227 30.4062ZM33.2539 33.9062V33.6055C33.2539 33.3919 33.3008 33.1966 33.3945 33.0195C33.4909 32.8424 33.6302 32.7005 33.8125 32.5938C33.9948 32.487 34.2148 32.4336 34.4727 32.4336C34.7409 32.4336 34.9648 32.487 35.1445 32.5938C35.3242 32.7005 35.4596 32.8424 35.5508 33.0195C35.6445 33.1966 35.6914 33.3919 35.6914 33.6055V33.9062C35.6914 34.1198 35.6445 34.3151 35.5508 34.4922C35.4596 34.6693 35.3242 34.8112 35.1445 34.918C34.9674 35.0247 34.7474 35.0781 34.4844 35.0781C34.2214 35.0781 33.9974 35.0247 33.8125 34.918C33.6302 34.8112 33.4909 34.6693 33.3945 34.4922C33.3008 34.3151 33.2539 34.1198 33.2539 33.9062ZM33.957 33.6055V33.9062C33.957 34.0078 33.9779 34.1029 34.0195 34.1914C34.0612 34.2773 34.1211 34.3477 34.1992 34.4023C34.2799 34.457 34.3737 34.4844 34.4805 34.4844C34.6107 34.4844 34.7135 34.457 34.7891 34.4023C34.8646 34.3477 34.918 34.2773 34.9492 34.1914C34.9805 34.1029 34.9961 34.0078 34.9961 33.9062V33.6055C34.9961 33.5039 34.9766 33.4102 34.9375 33.3242C34.8984 33.2357 34.8398 33.1641 34.7617 33.1094C34.6862 33.0547 34.5898 33.0273 34.4727 33.0273C34.3581 33.0273 34.2617 33.0547 34.1836 33.1094C34.1081 33.1641 34.0508 33.2357 34.0117 33.3242C33.9753 33.4102 33.957 33.5039 33.957 33.6055ZM34.7305 30.125L31.9531 34.5703L31.4414 34.2852L34.2188 29.8398L34.7305 30.125Z" fill="black"/>
<path d="M22.5391 31.6992H23.1211C23.3268 31.6992 23.4961 31.6641 23.6289 31.5938C23.7643 31.5208 23.8646 31.4219 23.9297 31.2969C23.9974 31.1693 24.0312 31.0221 24.0312 30.8555C24.0312 30.6914 24.0013 30.5495 23.9414 30.4297C23.8815 30.3073 23.7904 30.2135 23.668 30.1484C23.5482 30.0807 23.3945 30.0469 23.207 30.0469C23.056 30.0469 22.9167 30.0768 22.7891 30.1367C22.6641 30.1966 22.5638 30.2826 22.4883 30.3945C22.4154 30.5039 22.3789 30.6354 22.3789 30.7891H21.3438C21.3438 30.4818 21.4245 30.2122 21.5859 29.9805C21.75 29.7461 21.9714 29.5625 22.25 29.4297C22.5286 29.2969 22.8398 29.2305 23.1836 29.2305C23.5586 29.2305 23.8867 29.293 24.168 29.418C24.4518 29.5404 24.6719 29.7214 24.8281 29.9609C24.987 30.2005 25.0664 30.4974 25.0664 30.8516C25.0664 31.0208 25.026 31.1901 24.9453 31.3594C24.8672 31.526 24.7513 31.6771 24.5977 31.8125C24.4466 31.9453 24.2604 32.0534 24.0391 32.1367C23.8203 32.2174 23.569 32.2578 23.2852 32.2578H22.5391V31.6992ZM22.5391 32.4961V31.9453H23.2852C23.6055 31.9453 23.8828 31.9831 24.1172 32.0586C24.3542 32.1315 24.5495 32.2357 24.7031 32.3711C24.8568 32.5039 24.9701 32.6589 25.043 32.8359C25.1185 33.013 25.1562 33.2031 25.1562 33.4062C25.1562 33.6719 25.1068 33.9089 25.0078 34.1172C24.9089 34.3229 24.7695 34.4974 24.5898 34.6406C24.4128 34.7839 24.2044 34.8932 23.9648 34.9688C23.7253 35.0417 23.4661 35.0781 23.1875 35.0781C22.9453 35.0781 22.7096 35.0456 22.4805 34.9805C22.2539 34.9128 22.0495 34.8125 21.8672 34.6797C21.6849 34.5443 21.5404 34.375 21.4336 34.1719C21.3268 33.9661 21.2734 33.7279 21.2734 33.457H22.3086C22.3086 33.6133 22.3464 33.7526 22.4219 33.875C22.5 33.9974 22.6068 34.0938 22.7422 34.1641C22.8802 34.2318 23.0352 34.2656 23.207 34.2656C23.3971 34.2656 23.5599 34.2318 23.6953 34.1641C23.8333 34.0938 23.9388 33.9948 24.0117 33.8672C24.0846 33.737 24.1211 33.582 24.1211 33.4023C24.1211 33.1888 24.0807 33.0156 24 32.8828C23.9193 32.75 23.8034 32.6523 23.6523 32.5898C23.5039 32.5273 23.3268 32.4961 23.1211 32.4961H22.5391ZM29.7461 31.668V32.625C29.7461 33.0625 29.7018 33.4362 29.6133 33.7461C29.5247 34.056 29.3971 34.3099 29.2305 34.5078C29.0638 34.7031 28.8646 34.8477 28.6328 34.9414C28.401 35.0326 28.1432 35.0781 27.8594 35.0781C27.6328 35.0781 27.4219 35.0495 27.2266 34.9922C27.0312 34.9323 26.8555 34.8411 26.6992 34.7188C26.5456 34.5938 26.4128 34.4349 26.3008 34.2422C26.1914 34.0495 26.1068 33.819 26.0469 33.5508C25.9896 33.2826 25.9609 32.974 25.9609 32.625V31.668C25.9609 31.2305 26.0052 30.8581 26.0938 30.5508C26.1849 30.2435 26.3138 29.9922 26.4805 29.7969C26.6471 29.6016 26.8464 29.4596 27.0781 29.3711C27.3099 29.2799 27.5677 29.2344 27.8516 29.2344C28.0807 29.2344 28.2917 29.263 28.4844 29.3203C28.6797 29.3776 28.8542 29.4674 29.0078 29.5898C29.1641 29.7096 29.2969 29.8659 29.4062 30.0586C29.5156 30.2487 29.599 30.4779 29.6562 30.7461C29.7161 31.0117 29.7461 31.319 29.7461 31.668ZM28.7148 32.7656V31.5234C28.7148 31.3047 28.7018 31.1146 28.6758 30.9531C28.6523 30.7891 28.6172 30.6497 28.5703 30.5352C28.5234 30.4206 28.4648 30.3281 28.3945 30.2578C28.3242 30.1849 28.2435 30.1315 28.1523 30.0977C28.0612 30.0638 27.9609 30.0469 27.8516 30.0469C27.7161 30.0469 27.5951 30.0742 27.4883 30.1289C27.3815 30.181 27.2917 30.2643 27.2188 30.3789C27.1458 30.4935 27.0898 30.6458 27.0508 30.8359C27.0143 31.0234 26.9961 31.2526 26.9961 31.5234V32.7656C26.9961 32.9844 27.0078 33.1758 27.0312 33.3398C27.0573 33.5039 27.0938 33.6445 27.1406 33.7617C27.1901 33.8789 27.2487 33.9753 27.3164 34.0508C27.3867 34.1237 27.4674 34.1784 27.5586 34.2148C27.6497 34.2487 27.75 34.2656 27.8594 34.2656C27.9974 34.2656 28.1185 34.2383 28.2227 34.1836C28.3294 34.1289 28.4193 34.043 28.4922 33.9258C28.5651 33.806 28.6198 33.651 28.6562 33.4609C28.6953 33.2682 28.7148 33.0365 28.7148 32.7656ZM30.5234 30.707V30.4062C30.5234 30.1901 30.5703 29.9935 30.6641 29.8164C30.7578 29.6393 30.8945 29.4974 31.0742 29.3906C31.2565 29.2839 31.4779 29.2305 31.7383 29.2305C32.0039 29.2305 32.2266 29.2839 32.4062 29.3906C32.5885 29.4974 32.7253 29.6393 32.8164 29.8164C32.9102 29.9935 32.957 30.1901 32.957 30.4062V30.707C32.957 30.918 32.9102 31.112 32.8164 31.2891C32.7253 31.4661 32.5898 31.6081 32.4102 31.7148C32.2305 31.8216 32.0091 31.875 31.7461 31.875C31.4831 31.875 31.2604 31.8216 31.0781 31.7148C30.8958 31.6081 30.7578 31.4661 30.6641 31.2891C30.5703 31.112 30.5234 30.918 30.5234 30.707ZM31.2227 30.4062V30.707C31.2227 30.806 31.2409 30.8997 31.2773 30.9883C31.3164 31.0742 31.375 31.1445 31.4531 31.1992C31.5312 31.2539 31.6289 31.2812 31.7461 31.2812C31.8633 31.2812 31.9583 31.2539 32.0312 31.1992C32.1068 31.1445 32.1628 31.0742 32.1992 30.9883C32.2383 30.8997 32.2578 30.806 32.2578 30.707V30.4062C32.2578 30.3047 32.2383 30.2096 32.1992 30.1211C32.1628 30.0326 32.1055 29.9609 32.0273 29.9062C31.9518 29.8516 31.8555 29.8242 31.7383 29.8242C31.6237 29.8242 31.5273 29.8516 31.4492 29.9062C31.3737 29.9609 31.3164 30.0326 31.2773 30.1211C31.2409 30.2096 31.2227 30.3047 31.2227 30.4062ZM33.2539 33.9062V33.6055C33.2539 33.3919 33.3008 33.1966 33.3945 33.0195C33.4909 32.8424 33.6302 32.7005 33.8125 32.5938C33.9948 32.487 34.2148 32.4336 34.4727 32.4336C34.7409 32.4336 34.9648 32.487 35.1445 32.5938C35.3242 32.7005 35.4596 32.8424 35.5508 33.0195C35.6445 33.1966 35.6914 33.3919 35.6914 33.6055V33.9062C35.6914 34.1198 35.6445 34.3151 35.5508 34.4922C35.4596 34.6693 35.3242 34.8112 35.1445 34.918C34.9674 35.0247 34.7474 35.0781 34.4844 35.0781C34.2214 35.0781 33.9974 35.0247 33.8125 34.918C33.6302 34.8112 33.4909 34.6693 33.3945 34.4922C33.3008 34.3151 33.2539 34.1198 33.2539 33.9062ZM33.957 33.6055V33.9062C33.957 34.0078 33.9779 34.1029 34.0195 34.1914C34.0612 34.2773 34.1211 34.3477 34.1992 34.4023C34.2799 34.457 34.3737 34.4844 34.4805 34.4844C34.6107 34.4844 34.7135 34.457 34.7891 34.4023C34.8646 34.3477 34.918 34.2773 34.9492 34.1914C34.9805 34.1029 34.9961 34.0078 34.9961 33.9062V33.6055C34.9961 33.5039 34.9766 33.4102 34.9375 33.3242C34.8984 33.2357 34.8398 33.1641 34.7617 33.1094C34.6862 33.0547 34.5898 33.0273 34.4727 33.0273C34.3581 33.0273 34.2617 33.0547 34.1836 33.1094C34.1081 33.1641 34.0508 33.2357 34.0117 33.3242C33.9753 33.4102 33.957 33.5039 33.957 33.6055ZM34.7305 30.125L31.9531 34.5703L31.4414 34.2852L34.2188 29.8398L34.7305 30.125Z" fill="url(#paint4_linear_3073_847)"/>
<defs>
<linearGradient id="paint0_linear_3073_847" x1="44.1967" y1="23.5377" x2="14.9168" y2="17.7145" gradientUnits="userSpaceOnUse">
<stop stop-color="#6200EE"/>
<stop offset="1" stop-color="#007EC5"/>
</linearGradient>
<linearGradient id="paint1_linear_3073_847" x1="35.875" y1="15" x2="11.9816" y2="30.3462" gradientUnits="userSpaceOnUse">
<stop stop-color="#6200EE"/>
<stop offset="1" stop-color="#007EC5"/>
</linearGradient>
<linearGradient id="paint2_linear_3073_847" x1="35.875" y1="15" x2="11.9816" y2="30.3462" gradientUnits="userSpaceOnUse">
<stop stop-color="#6200EE"/>
<stop offset="1" stop-color="#007EC5"/>
</linearGradient>
<linearGradient id="paint3_linear_3073_847" x1="40.8357" y1="18.1758" x2="36.1202" y2="20.6624" gradientUnits="userSpaceOnUse">
<stop stop-color="#6200EE"/>
<stop offset="1" stop-color="#007EC5"/>
</linearGradient>
<linearGradient id="paint4_linear_3073_847" x1="32.9375" y1="28" x2="23.9562" y2="36.42" gradientUnits="userSpaceOnUse">
<stop stop-color="#6200EE"/>
<stop offset="1" stop-color="#007EC5"/>
</linearGradient>
</defs>
</svg>
