<svg width="56" height="56" viewBox="0 0 56 56" fill="none" xmlns="http://www.w3.org/2000/svg">
<path d="M36 0H20C8.9543 0 0 8.9543 0 20V36C0 47.0457 8.9543 56 20 56H36C47.0457 56 56 47.0457 56 36V20C56 8.9543 47.0457 0 36 0Z" fill="#F1E8FF"/>
<path d="M39.5882 26.8256V17.727C39.5882 16.1513 38.3088 14.8618 36.7445 14.8618H35.3235V12H32.4798V14.8618H21.1084V12H18.2647V14.8618H16.8437C16.129 14.8618 15.4827 15.125 14.9879 15.5592C14.3898 16.0855 14.015 16.8651 14.015 17.727L14 37.7697C14 39.3421 15.2644 40.6316 16.8437 40.6316H25.6046C25.0897 39.7527 24.7049 38.7902 24.4765 37.7697H16.8437V17.727H36.7445V25.724C37.7578 25.9509 38.7139 26.3262 39.5882 26.8256Z" fill="url(#paint0_linear_2417_657)"/>
<path d="M28.8108 27.1579H24.2353V28.8421H26.8415C27.4219 28.2019 28.0837 27.6352 28.8108 27.1579Z" fill="url(#paint1_linear_2417_657)"/>
<path d="M24.8177 32.2105H24.2353V33.8947H24.3768C24.4753 33.3151 24.6238 32.7522 24.8177 32.2105Z" fill="url(#paint2_linear_2417_657)"/>
<path d="M19.9706 22.1053H22.5294V23.7895H19.9706V22.1053Z" fill="url(#paint3_linear_2417_657)"/>
<path d="M22.5294 27.1579H19.9706V28.8421H22.5294V27.1579Z" fill="url(#paint4_linear_2417_657)"/>
<path d="M19.9706 32.2105H22.5294V33.8947H19.9706V32.2105Z" fill="url(#paint5_linear_2417_657)"/>
<path d="M24.2353 22.1053H34.4706V23.7895H24.2353V22.1053Z" fill="url(#paint6_linear_2417_657)"/>
<path fill-rule="evenodd" clip-rule="evenodd" d="M34.4706 41.4737C37.7681 41.4737 40.4412 38.8345 40.4412 35.5789C40.4412 32.3234 37.7681 29.6842 34.4706 29.6842C31.1731 29.6842 28.5 32.3234 28.5 35.5789C28.5 38.8345 31.1731 41.4737 34.4706 41.4737ZM34.4706 44C39.1813 44 43 40.2298 43 35.5789C43 30.9281 39.1813 27.1579 34.4706 27.1579C29.7599 27.1579 25.9412 30.9281 25.9412 35.5789C25.9412 40.2298 29.7599 44 34.4706 44Z" fill="url(#paint7_linear_2417_657)"/>
<path fill-rule="evenodd" clip-rule="evenodd" d="M33.1912 31.7895H34.8971V35.1579H37.8824V36.8421H33.1912V31.7895Z" fill="url(#paint8_linear_2417_657)"/>
<defs>
<linearGradient id="paint0_linear_2417_657" x1="41.1875" y1="12" x2="9.60784" y2="38.8304" gradientUnits="userSpaceOnUse">
<stop stop-color="#6200EE"/>
<stop offset="1" stop-color="#007EC5"/>
</linearGradient>
<linearGradient id="paint1_linear_2417_657" x1="41.1875" y1="12" x2="9.60784" y2="38.8304" gradientUnits="userSpaceOnUse">
<stop stop-color="#6200EE"/>
<stop offset="1" stop-color="#007EC5"/>
</linearGradient>
<linearGradient id="paint2_linear_2417_657" x1="41.1875" y1="12" x2="9.60784" y2="38.8304" gradientUnits="userSpaceOnUse">
<stop stop-color="#6200EE"/>
<stop offset="1" stop-color="#007EC5"/>
</linearGradient>
<linearGradient id="paint3_linear_2417_657" x1="41.1875" y1="12" x2="9.60784" y2="38.8304" gradientUnits="userSpaceOnUse">
<stop stop-color="#6200EE"/>
<stop offset="1" stop-color="#007EC5"/>
</linearGradient>
<linearGradient id="paint4_linear_2417_657" x1="41.1875" y1="12" x2="9.60784" y2="38.8304" gradientUnits="userSpaceOnUse">
<stop stop-color="#6200EE"/>
<stop offset="1" stop-color="#007EC5"/>
</linearGradient>
<linearGradient id="paint5_linear_2417_657" x1="41.1875" y1="12" x2="9.60784" y2="38.8304" gradientUnits="userSpaceOnUse">
<stop stop-color="#6200EE"/>
<stop offset="1" stop-color="#007EC5"/>
</linearGradient>
<linearGradient id="paint6_linear_2417_657" x1="41.1875" y1="12" x2="9.60784" y2="38.8304" gradientUnits="userSpaceOnUse">
<stop stop-color="#6200EE"/>
<stop offset="1" stop-color="#007EC5"/>
</linearGradient>
<linearGradient id="paint7_linear_2417_657" x1="41.1875" y1="12" x2="9.60784" y2="38.8304" gradientUnits="userSpaceOnUse">
<stop stop-color="#6200EE"/>
<stop offset="1" stop-color="#007EC5"/>
</linearGradient>
<linearGradient id="paint8_linear_2417_657" x1="41.1875" y1="12" x2="9.60784" y2="38.8304" gradientUnits="userSpaceOnUse">
<stop stop-color="#6200EE"/>
<stop offset="1" stop-color="#007EC5"/>
</linearGradient>
</defs>
</svg>
