<?xml version="1.0" encoding="utf-8"?>
<svg xmlns="http://www.w3.org/2000/svg" height="32" width="32" viewBox="0 0 32 32">
  <g>
    <path id="path1" transform="rotate(0,16,16) translate(8.5,6) scale(0.625,0.625)  " fill="#7620EF" d="M10,23L10,27 14,27 14,23z M5,23L5,27 9,27 9,23z M5,18L5,22 15,22 15,27 19,27 19,18z M15,13L15,17 19,17 19,13z M10,13L10,17 14,17 14,13z M5,13L5,17 9,17 9,13z M4,12L20,12 20,28 4,28z M2,2L2,30 22,30 22,8.4519997 15.653,2z M0,0L16.491,0 24,7.6339998 24,32 0,32z" />
  </g>
</svg>

