<svg width="56" height="56" viewBox="0 0 56 56" fill="none" xmlns="http://www.w3.org/2000/svg">
<path d="M36 0H20C8.9543 0 0 8.9543 0 20V36C0 47.0457 8.9543 56 20 56H36C47.0457 56 56 47.0457 56 36V20C56 8.9543 47.0457 0 36 0Z" fill="#F1E8FF"/>
<rect x="44" y="18.5" width="3" height="32" rx="1.5" transform="rotate(90 44 18.5)" fill="#E6D4FF"/>
<rect x="33" y="18.5" width="3" height="21" rx="1.5" transform="rotate(90 33 18.5)" fill="#C2A0FF"/>
<circle cx="33" cy="20" r="3" fill="url(#paint0_linear_2405_634)"/>
<rect x="44" y="34.5" width="3" height="32" rx="1.5" transform="rotate(90 44 34.5)" fill="#E6D4FF"/>
<rect x="32" y="34.5" width="3" height="20" rx="1.5" transform="rotate(90 32 34.5)" fill="#C2A0FF"/>
<circle cx="29" cy="36" r="3" fill="url(#paint1_linear_2405_634)"/>
<defs>
<linearGradient id="paint0_linear_2405_634" x1="35.625" y1="17" x2="29.6375" y2="22.6133" gradientUnits="userSpaceOnUse">
<stop stop-color="#6200EE"/>
<stop offset="1" stop-color="#007EC5"/>
</linearGradient>
<linearGradient id="paint1_linear_2405_634" x1="31.625" y1="33" x2="25.6375" y2="38.6133" gradientUnits="userSpaceOnUse">
<stop stop-color="#6200EE"/>
<stop offset="1" stop-color="#007EC5"/>
</linearGradient>
</defs>
</svg>
