<svg width="56" height="56" viewBox="0 0 56 56" fill="none" xmlns="http://www.w3.org/2000/svg">
<g id="Tab">
<rect id="Rectangle 1382" width="56" height="56" rx="20" fill="#F1E8FF"/>
<g id="Vector">
<mask id="path-2-inside-1" fill="white">
<path d="M12 14C12 12.8954 12.8954 12 14 12H42C43.1046 12 44 12.8954 44 14V42C44 43.1046 43.1046 44 42 44H14C12.8954 44 12 43.1046 12 42V14Z"/>
</mask>
<path d="M15 19.5V15.5H12V19.5H15ZM15.5 15H26.5V12H15.5V15ZM27 15.5V20.5H30V15.5H27ZM29 22.5H44V19.5H29V22.5ZM27 20.5C27 20.5884 26.9978 20.7818 27.017 20.9547C27.035 21.1166 27.0988 21.5952 27.5018 21.9982C27.9048 22.4012 28.3834 22.465 28.5453 22.483C28.7182 22.5022 28.9116 22.5 29 22.5V19.5C28.8384 19.5 28.8443 19.4978 28.8766 19.5014C28.8978 19.5037 29.2827 19.5363 29.6232 19.8768C29.9637 20.2173 29.9963 20.6022 29.9986 20.6234C30.0022 20.6557 30 20.6616 30 20.5H27ZM26.5 15C26.7761 15 27 15.2239 27 15.5H30C30 13.567 28.433 12 26.5 12V15ZM15 15.5C15 15.2239 15.2239 15 15.5 15V12C13.567 12 12 13.567 12 15.5H15ZM14 15H42V9H14V15ZM41 14V42H47V14H41ZM42 41H14V47H42V41ZM15 42V14H9V42H15ZM14 41C14.5523 41 15 41.4477 15 42H9C9 44.7614 11.2386 47 14 47V41ZM41 42C41 41.4477 41.4477 41 42 41V47C44.7614 47 47 44.7614 47 42H41ZM42 15C41.4477 15 41 14.5523 41 14H47C47 11.2386 44.7614 9 42 9V15ZM14 9C11.2386 9 9 11.2386 9 14H15C15 14.5523 14.5523 15 14 15V9Z" fill="black" mask="url(#path-2-inside-1)"/>
<path d="M15 19.5V15.5H12V19.5H15ZM15.5 15H26.5V12H15.5V15ZM27 15.5V20.5H30V15.5H27ZM29 22.5H44V19.5H29V22.5ZM27 20.5C27 20.5884 26.9978 20.7818 27.017 20.9547C27.035 21.1166 27.0988 21.5952 27.5018 21.9982C27.9048 22.4012 28.3834 22.465 28.5453 22.483C28.7182 22.5022 28.9116 22.5 29 22.5V19.5C28.8384 19.5 28.8443 19.4978 28.8766 19.5014C28.8978 19.5037 29.2827 19.5363 29.6232 19.8768C29.9637 20.2173 29.9963 20.6022 29.9986 20.6234C30.0022 20.6557 30 20.6616 30 20.5H27ZM26.5 15C26.7761 15 27 15.2239 27 15.5H30C30 13.567 28.433 12 26.5 12V15ZM15 15.5C15 15.2239 15.2239 15 15.5 15V12C13.567 12 12 13.567 12 15.5H15ZM14 15H42V9H14V15ZM41 14V42H47V14H41ZM42 41H14V47H42V41ZM15 42V14H9V42H15ZM14 41C14.5523 41 15 41.4477 15 42H9C9 44.7614 11.2386 47 14 47V41ZM41 42C41 41.4477 41.4477 41 42 41V47C44.7614 47 47 44.7614 47 42H41ZM42 15C41.4477 15 41 14.5523 41 14H47C47 11.2386 44.7614 9 42 9V15ZM14 9C11.2386 9 9 11.2386 9 14H15C15 14.5523 14.5523 15 14 15V9Z" fill="url(#paint0_linear)" mask="url(#path-2-inside-1)"/>
</g>
</g>
<defs>
<linearGradient id="paint0_linear" x1="42" y1="12" x2="10.0665" y2="41.9376" gradientUnits="userSpaceOnUse">
<stop stop-color="#6200EE"/>
<stop offset="1" stop-color="#007EC5"/>
</linearGradient>
</defs>
</svg>
