<svg width="56" height="56" viewBox="0 0 56 56" fill="none" xmlns="http://www.w3.org/2000/svg">
<path d="M36 0H20C8.9543 0 0 8.9543 0 20V36C0 47.0457 8.9543 56 20 56H36C47.0457 56 56 47.0457 56 36V20C56 8.9543 47.0457 0 36 0Z" fill="#F1E8FF"/>
<rect x="18.5" y="12" width="3" height="32" rx="1.5" fill="#E6D4FF"/>
<rect x="18.5" y="17" width="3" height="17" fill="#C2A0FF"/>
<circle cx="20" cy="19" r="3" fill="#5B0BEB"/>
<circle cx="20" cy="19" r="3" fill="url(#paint0_linear_2400_605)"/>
<circle cx="20" cy="33" r="3" fill="#5B0BEB"/>
<circle cx="20" cy="33" r="3" fill="url(#paint1_linear_2400_605)"/>
<rect x="34.5" y="12" width="3" height="32" rx="1.5" fill="#E6D4FF"/>
<rect x="34.5" y="24" width="3" height="14" fill="#C2A0FF"/>
<circle cx="36" cy="23" r="3" fill="#5B0BEB"/>
<circle cx="36" cy="23" r="3" fill="url(#paint2_linear_2400_605)"/>
<circle cx="36" cy="37" r="3" fill="#5B0BEB"/>
<circle cx="36" cy="37" r="3" fill="url(#paint3_linear_2400_605)"/>
<defs>
<linearGradient id="paint0_linear_2400_605" x1="22.625" y1="16" x2="16.6375" y2="21.6133" gradientUnits="userSpaceOnUse">
<stop stop-color="#6200EE"/>
<stop offset="1" stop-color="#007EC5"/>
</linearGradient>
<linearGradient id="paint1_linear_2400_605" x1="22.625" y1="30" x2="16.6375" y2="35.6133" gradientUnits="userSpaceOnUse">
<stop stop-color="#6200EE"/>
<stop offset="1" stop-color="#007EC5"/>
</linearGradient>
<linearGradient id="paint2_linear_2400_605" x1="38.625" y1="20" x2="32.6375" y2="25.6133" gradientUnits="userSpaceOnUse">
<stop stop-color="#6200EE"/>
<stop offset="1" stop-color="#007EC5"/>
</linearGradient>
<linearGradient id="paint3_linear_2400_605" x1="38.625" y1="34" x2="32.6375" y2="39.6133" gradientUnits="userSpaceOnUse">
<stop stop-color="#6200EE"/>
<stop offset="1" stop-color="#007EC5"/>
</linearGradient>
</defs>
</svg>
