<svg width="360" height="640" viewBox="0 0 360 640" fill="none" xmlns="http://www.w3.org/2000/svg">
<g clip-path="url(#clip0_1132_613)">
<path opacity="0.2" d="M360 41V462L180 -1.5L360 41Z" fill="url(#paint0_linear_1132_613)"/>
<path opacity="0.2" d="M360 598V177L180 640.5L360 598Z" fill="url(#paint1_linear_1132_613)"/>
<path opacity="0.2" d="M47.4392 592.782L439.612 439.675L-57.612 440.563L47.4392 592.782Z" fill="url(#paint2_linear_1132_613)"/>
<path opacity="0.2" d="M322.447 484.959L-76.1651 640.58L429.223 639.677L322.447 484.959Z" fill="url(#paint3_linear_1132_613)"/>
<path opacity="0.2" d="M334.563 46.4567L-57.6098 199.564L439.614 198.675L334.563 46.4567Z" fill="url(#paint4_linear_1132_613)"/>
<path opacity="0.15" d="M1 42.5V463.5L181 0L1 42.5Z" fill="url(#paint5_linear_1132_613)"/>
<path opacity="0.2" d="M1 599.5V178.5L181 642L1 599.5Z" fill="url(#paint6_linear_1132_613)"/>
<rect x="112" y="574.332" width="6.89797" height="6.66667" fill="white"/>
<rect x="112" y="581.832" width="6.89797" height="6.66667" fill="white"/>
<rect x="112" y="589.332" width="6.89797" height="6.66667" fill="white"/>
<rect x="119.76" y="574.332" width="6.89797" height="6.66667" fill="white"/>
<rect x="119.76" y="581.832" width="6.89797" height="6.66667" fill="white"/>
<rect x="119.76" y="589.332" width="6.89797" height="6.66667" fill="white"/>
<rect width="6.78331" height="6.78331" transform="matrix(0.71906 0.694948 -0.71906 0.694948 134.123 571)" fill="white"/>
<rect x="127.521" y="581.832" width="6.89797" height="6.66667" fill="white"/>
<rect x="127.521" y="589.332" width="6.89797" height="6.66667" fill="white"/>
<path d="M144.32 596H151.02C153 596 153.84 595.88 154.5 595.46C155.54 594.82 156.2 593.5 156.2 592.06C156.2 590.92 155.8 589.74 155.2 589.14C154.42 588.34 153.36 588.04 151.4 588.04H149.26C148.3 588.04 147.98 588 147.58 587.82C147.1 587.6 146.82 587.12 146.82 586.52C146.82 585.82 147.16 585.3 147.72 585.16C148.14 585.06 148.24 585.06 149.5 585.04H155.46V582.66H148.86C147.3 582.66 146.6 582.72 146 582.94C144.6 583.42 143.68 584.9 143.68 586.62C143.68 587.76 144.14 588.84 144.94 589.54C145.64 590.14 146.68 590.42 148.28 590.42H150.74C151.38 590.42 151.9 590.5 152.18 590.66C152.72 590.92 153.04 591.46 153.04 592.08C153.04 592.6 152.8 593.04 152.38 593.3C152.04 593.52 151.46 593.62 150.4 593.62H144.32V596ZM164.366 593.92H162.166C161.026 593.92 160.766 593.46 160.766 591.44V586.26H158.086V591.7C158.086 593.58 158.266 594.24 158.966 595C159.666 595.74 160.466 596 161.986 596H164.366L164.346 596.36C164.306 596.9 164.186 597.12 163.866 597.24C163.666 597.32 163.206 597.38 162.866 597.38H158.086V599.46H162.866C164.066 599.46 164.906 599.3 165.486 598.98C166.546 598.38 167.046 597.36 167.046 595.8V586.26H164.366V593.92ZM169.711 586.26V596H172.391V588.34H174.711C175.691 588.34 176.091 588.72 176.091 589.7V596H178.771V590C178.771 588.64 178.431 587.68 177.751 587.04C177.071 586.44 176.431 586.26 174.871 586.26H169.711ZM189.393 586.26H185.733C183.933 586.26 182.913 586.54 182.113 587.22C181.133 588.06 180.613 589.4 180.613 591.1C180.613 592.56 181.033 593.72 181.873 594.66C182.753 595.64 183.773 596 185.733 596H189.393V593.92H186.493C185.413 593.92 184.893 593.8 184.373 593.44C183.693 592.98 183.353 592.2 183.353 591.14C183.353 589.16 184.193 588.34 186.193 588.34H189.393V586.26ZM192.268 588.34V596H194.948V588.34H197.448V586.26H194.948V585.82C194.948 585.04 195.268 584.74 196.088 584.74H197.448V582.66H195.088C193.128 582.66 192.268 583.56 192.268 585.68V586.26H190.508V588.34H192.268ZM205.406 593.92H202.886C202.086 593.92 201.606 593.4 201.606 592.52V586.26H198.926V592.26C198.926 593.62 199.266 594.58 199.946 595.22C200.626 595.82 201.266 596 202.826 596H208.086V586.26H205.406V593.92ZM219.206 586.26H213.486C212.366 586.26 211.786 586.38 211.326 586.72C210.626 587.26 210.206 588.14 210.206 589.1C210.206 590.1 210.626 591.02 211.306 591.54C211.886 592 212.486 592.14 213.766 592.14H215.406C216.066 592.14 216.346 592.16 216.526 592.26C216.846 592.38 217.026 592.7 217.026 593.1C217.026 593.54 216.786 593.82 216.366 593.88C216.146 593.9 215.766 593.92 215.106 593.92H210.346V596H215.886C216.986 596 217.686 595.92 218.066 595.74C218.986 595.34 219.646 594.14 219.646 592.94C219.646 591.16 218.426 590.16 216.286 590.16H214.706C213.926 590.16 213.606 590.12 213.426 590.02C213.126 589.84 212.966 589.56 212.966 589.2C212.966 588.5 213.246 588.34 214.446 588.34H219.206V586.26ZM221.722 586.26V596H224.402V586.26H221.722ZM221.722 585.26H224.402V582.66H221.722V585.26ZM231.575 586.12C228.395 586.12 226.375 588.04 226.375 591.1C226.375 594.28 228.275 596.14 231.475 596.14C234.675 596.14 236.675 594.26 236.675 591.24C236.675 589.84 236.315 588.72 235.555 587.76C234.715 586.68 233.335 586.12 231.575 586.12ZM231.495 588.18C233.115 588.18 233.935 589.16 233.935 591.1C233.935 593.1 233.135 594.08 231.555 594.08C229.955 594.08 229.115 593.08 229.115 591.18C229.115 589.18 229.895 588.18 231.495 588.18ZM238.675 586.26V596H241.355V588.34H243.675C244.655 588.34 245.055 588.72 245.055 589.7V596H247.735V590C247.735 588.64 247.395 587.68 246.715 587.04C246.035 586.44 245.395 586.26 243.835 586.26H238.675Z" fill="white"/>
<path opacity="0.15" d="M137.732 287C136.66 285.144 136.66 282.856 137.732 281L156.268 248.895C157.34 247.038 159.321 245.895 161.464 245.895L198.536 245.895C200.679 245.895 202.66 247.038 203.732 248.895L222.268 281C223.34 282.856 223.34 285.144 222.268 287L203.732 319.105C202.66 320.962 200.679 322.105 198.536 322.105L161.464 322.105C159.321 322.105 157.34 320.962 156.268 319.105L137.732 287Z" fill="white"/>
<path d="M161.72 353L161.694 342.08L156.338 351.076H154.44L149.11 342.314V353H145.158V334.8H148.642L155.454 346.11L162.162 334.8H165.62L165.672 353H161.72ZM182.126 349.1H173.676L172.064 353H167.748L175.86 334.8H180.02L188.158 353H183.738L182.126 349.1ZM180.8 345.902L177.914 338.934L175.028 345.902H180.8ZM197.901 353.312C195.301 353.312 193.273 352.593 191.817 351.154C190.379 349.715 189.659 347.661 189.659 344.992V334.8H193.871V344.836C193.871 348.095 195.223 349.724 197.927 349.724C199.245 349.724 200.25 349.334 200.943 348.554C201.637 347.757 201.983 346.517 201.983 344.836V334.8H206.143V344.992C206.143 347.661 205.415 349.715 203.959 351.154C202.521 352.593 200.501 353.312 197.901 353.312ZM210.456 334.8H214.668V353H210.456V334.8Z" fill="#EDE9FC"/>
<path d="M123.34 373L118.7 387H115.94L112.48 376.64L108.96 387H106.18L101.54 373H104.24L107.72 383.64L111.34 373H113.74L117.28 383.7L120.86 373H123.34ZM125.466 376.32H127.966V387H125.466V376.32ZM126.726 374.56C126.272 374.56 125.892 374.42 125.586 374.14C125.279 373.847 125.126 373.487 125.126 373.06C125.126 372.633 125.279 372.28 125.586 372C125.892 371.707 126.272 371.56 126.726 371.56C127.179 371.56 127.559 371.7 127.866 371.98C128.172 372.247 128.326 372.587 128.326 373C128.326 373.44 128.172 373.813 127.866 374.12C127.572 374.413 127.192 374.56 126.726 374.56ZM141.857 372.16V387H139.457V385.62C139.044 386.127 138.53 386.507 137.917 386.76C137.317 387.013 136.65 387.14 135.917 387.14C134.89 387.14 133.964 386.913 133.137 386.46C132.324 386.007 131.684 385.367 131.217 384.54C130.75 383.7 130.517 382.74 130.517 381.66C130.517 380.58 130.75 379.627 131.217 378.8C131.684 377.973 132.324 377.333 133.137 376.88C133.964 376.427 134.89 376.2 135.917 376.2C136.624 376.2 137.27 376.32 137.857 376.56C138.444 376.8 138.944 377.16 139.357 377.64V372.16H141.857ZM136.217 385C136.817 385 137.357 384.867 137.837 384.6C138.317 384.32 138.697 383.927 138.977 383.42C139.257 382.913 139.397 382.327 139.397 381.66C139.397 380.993 139.257 380.407 138.977 379.9C138.697 379.393 138.317 379.007 137.837 378.74C137.357 378.46 136.817 378.32 136.217 378.32C135.617 378.32 135.077 378.46 134.597 378.74C134.117 379.007 133.737 379.393 133.457 379.9C133.177 380.407 133.037 380.993 133.037 381.66C133.037 382.327 133.177 382.913 133.457 383.42C133.737 383.927 134.117 384.32 134.597 384.6C135.077 384.867 135.617 385 136.217 385ZM155.878 376.32V385.38C155.878 389.14 153.958 391.02 150.118 391.02C149.091 391.02 148.118 390.887 147.198 390.62C146.278 390.367 145.518 389.993 144.918 389.5L146.038 387.62C146.504 388.007 147.091 388.313 147.798 388.54C148.518 388.78 149.244 388.9 149.978 388.9C151.151 388.9 152.011 388.633 152.558 388.1C153.104 387.567 153.378 386.753 153.378 385.66V385.1C152.951 385.567 152.431 385.92 151.818 386.16C151.204 386.4 150.531 386.52 149.798 386.52C148.784 386.52 147.864 386.307 147.038 385.88C146.224 385.44 145.578 384.827 145.098 384.04C144.631 383.253 144.398 382.353 144.398 381.34C144.398 380.327 144.631 379.433 145.098 378.66C145.578 377.873 146.224 377.267 147.038 376.84C147.864 376.413 148.784 376.2 149.798 376.2C150.571 376.2 151.271 376.327 151.898 376.58C152.538 376.833 153.071 377.22 153.498 377.74V376.32H155.878ZM150.178 384.4C151.124 384.4 151.898 384.12 152.498 383.56C153.111 382.987 153.418 382.247 153.418 381.34C153.418 380.447 153.111 379.72 152.498 379.16C151.898 378.6 151.124 378.32 150.178 378.32C149.218 378.32 148.431 378.6 147.818 379.16C147.218 379.72 146.918 380.447 146.918 381.34C146.918 382.247 147.218 382.987 147.818 383.56C148.431 384.12 149.218 384.4 150.178 384.4ZM169.354 381.72C169.354 381.893 169.341 382.14 169.314 382.46H160.934C161.081 383.247 161.461 383.873 162.074 384.34C162.701 384.793 163.474 385.02 164.394 385.02C165.568 385.02 166.534 384.633 167.294 383.86L168.634 385.4C168.154 385.973 167.548 386.407 166.814 386.7C166.081 386.993 165.254 387.14 164.334 387.14C163.161 387.14 162.128 386.907 161.234 386.44C160.341 385.973 159.648 385.327 159.154 384.5C158.674 383.66 158.434 382.713 158.434 381.66C158.434 380.62 158.668 379.687 159.134 378.86C159.614 378.02 160.274 377.367 161.114 376.9C161.954 376.433 162.901 376.2 163.954 376.2C164.994 376.2 165.921 376.433 166.734 376.9C167.561 377.353 168.201 378 168.654 378.84C169.121 379.667 169.354 380.627 169.354 381.72ZM163.954 378.2C163.154 378.2 162.474 378.44 161.914 378.92C161.368 379.387 161.034 380.013 160.914 380.8H166.974C166.868 380.027 166.541 379.4 165.994 378.92C165.448 378.44 164.768 378.2 163.954 378.2ZM178.326 386.42C178.032 386.66 177.672 386.84 177.246 386.96C176.832 387.08 176.392 387.14 175.926 387.14C174.752 387.14 173.846 386.833 173.206 386.22C172.566 385.607 172.246 384.713 172.246 383.54V378.4H170.486V376.4H172.246V373.96H174.746V376.4H177.606V378.4H174.746V383.48C174.746 384 174.872 384.4 175.126 384.68C175.379 384.947 175.746 385.08 176.226 385.08C176.786 385.08 177.252 384.933 177.626 384.64L178.326 386.42ZM183.832 387.14C182.966 387.14 182.119 387.027 181.292 386.8C180.466 386.573 179.806 386.287 179.312 385.94L180.272 384.04C180.752 384.36 181.326 384.62 181.992 384.82C182.672 385.007 183.339 385.1 183.992 385.1C185.486 385.1 186.232 384.707 186.232 383.92C186.232 383.547 186.039 383.287 185.652 383.14C185.279 382.993 184.672 382.853 183.832 382.72C182.952 382.587 182.232 382.433 181.672 382.26C181.126 382.087 180.646 381.787 180.232 381.36C179.832 380.92 179.632 380.313 179.632 379.54C179.632 378.527 180.052 377.72 180.892 377.12C181.746 376.507 182.892 376.2 184.332 376.2C185.066 376.2 185.799 376.287 186.532 376.46C187.266 376.62 187.866 376.84 188.332 377.12L187.372 379.02C186.466 378.487 185.446 378.22 184.312 378.22C183.579 378.22 183.019 378.333 182.632 378.56C182.259 378.773 182.072 379.06 182.072 379.42C182.072 379.82 182.272 380.107 182.672 380.28C183.086 380.44 183.719 380.593 184.572 380.74C185.426 380.873 186.126 381.027 186.672 381.2C187.219 381.373 187.686 381.667 188.072 382.08C188.472 382.493 188.672 383.08 188.672 383.84C188.672 384.84 188.239 385.64 187.372 386.24C186.506 386.84 185.326 387.14 183.832 387.14ZM196.892 373H203.012C204.506 373 205.832 373.293 206.992 373.88C208.152 374.453 209.052 375.273 209.692 376.34C210.332 377.393 210.652 378.613 210.652 380C210.652 381.387 210.332 382.613 209.692 383.68C209.052 384.733 208.152 385.553 206.992 386.14C205.832 386.713 204.506 387 203.012 387H196.892V373ZM202.892 384.8C203.919 384.8 204.819 384.607 205.592 384.22C206.379 383.82 206.979 383.26 207.392 382.54C207.819 381.807 208.032 380.96 208.032 380C208.032 379.04 207.819 378.2 207.392 377.48C206.979 376.747 206.379 376.187 205.592 375.8C204.819 375.4 203.919 375.2 202.892 375.2H199.492V384.8H202.892ZM223.366 381.72C223.366 381.893 223.353 382.14 223.326 382.46H214.946C215.093 383.247 215.473 383.873 216.086 384.34C216.713 384.793 217.486 385.02 218.406 385.02C219.579 385.02 220.546 384.633 221.306 383.86L222.646 385.4C222.166 385.973 221.559 386.407 220.826 386.7C220.093 386.993 219.266 387.14 218.346 387.14C217.173 387.14 216.139 386.907 215.246 386.44C214.353 385.973 213.659 385.327 213.166 384.5C212.686 383.66 212.446 382.713 212.446 381.66C212.446 380.62 212.679 379.687 213.146 378.86C213.626 378.02 214.286 377.367 215.126 376.9C215.966 376.433 216.913 376.2 217.966 376.2C219.006 376.2 219.933 376.433 220.746 376.9C221.573 377.353 222.213 378 222.666 378.84C223.133 379.667 223.366 380.627 223.366 381.72ZM217.966 378.2C217.166 378.2 216.486 378.44 215.926 378.92C215.379 379.387 215.046 380.013 214.926 380.8H220.986C220.879 380.027 220.553 379.4 220.006 378.92C219.459 378.44 218.779 378.2 217.966 378.2ZM239.397 376.2C240.744 376.2 241.811 376.593 242.597 377.38C243.384 378.153 243.777 379.32 243.777 380.88V387H241.277V381.2C241.277 380.267 241.071 379.567 240.657 379.1C240.244 378.62 239.651 378.38 238.877 378.38C238.037 378.38 237.364 378.66 236.857 379.22C236.351 379.767 236.097 380.553 236.097 381.58V387H233.597V381.2C233.597 380.267 233.391 379.567 232.977 379.1C232.564 378.62 231.971 378.38 231.197 378.38C230.344 378.38 229.664 378.653 229.157 379.2C228.664 379.747 228.417 380.54 228.417 381.58V387H225.917V376.32H228.297V377.68C228.697 377.2 229.197 376.833 229.797 376.58C230.397 376.327 231.064 376.2 231.797 376.2C232.597 376.2 233.304 376.353 233.917 376.66C234.544 376.953 235.037 377.393 235.397 377.98C235.837 377.42 236.404 376.987 237.097 376.68C237.791 376.36 238.557 376.2 239.397 376.2ZM252.02 387.14C250.94 387.14 249.966 386.907 249.1 386.44C248.233 385.973 247.553 385.327 247.06 384.5C246.58 383.66 246.34 382.713 246.34 381.66C246.34 380.607 246.58 379.667 247.06 378.84C247.553 378.013 248.233 377.367 249.1 376.9C249.966 376.433 250.94 376.2 252.02 376.2C253.113 376.2 254.093 376.433 254.96 376.9C255.826 377.367 256.5 378.013 256.98 378.84C257.473 379.667 257.72 380.607 257.72 381.66C257.72 382.713 257.473 383.66 256.98 384.5C256.5 385.327 255.826 385.973 254.96 386.44C254.093 386.907 253.113 387.14 252.02 387.14ZM252.02 385C252.94 385 253.7 384.693 254.3 384.08C254.9 383.467 255.2 382.66 255.2 381.66C255.2 380.66 254.9 379.853 254.3 379.24C253.7 378.627 252.94 378.32 252.02 378.32C251.1 378.32 250.34 378.627 249.74 379.24C249.153 379.853 248.86 380.66 248.86 381.66C248.86 382.66 249.153 383.467 249.74 384.08C250.34 384.693 251.1 385 252.02 385Z" fill="#EDE9FC"/>
<g opacity="0.9">
<rect x="161" y="269.805" width="10.2187" height="10.1371" fill="white"/>
<rect x="161" y="281.223" width="10.2187" height="10.1371" fill="white"/>
<rect x="161" y="292.602" width="10.2187" height="10.1371" fill="white"/>
<rect x="172.502" y="269.805" width="10.2187" height="10.1371" fill="white"/>
<rect x="172.502" y="281.223" width="10.2187" height="10.1371" fill="white"/>
<rect x="172.502" y="292.602" width="10.2187" height="10.1371" fill="white"/>
<rect width="10.178" height="10.178" transform="matrix(0.709935 0.704267 -0.709935 0.704267 193.773 264.738)" fill="white"/>
<rect x="183.99" y="281.223" width="10.2187" height="10.1371" fill="white"/>
<rect x="183.99" y="292.602" width="10.2187" height="10.1371" fill="white"/>
</g>
</g>
<defs>
<linearGradient id="paint0_linear_1132_613" x1="298.049" y1="462" x2="298.049" y2="-4.06377e-05" gradientUnits="userSpaceOnUse">
<stop stop-color="white" stop-opacity="0.35"/>
<stop offset="1" stop-color="white" stop-opacity="0"/>
</linearGradient>
<linearGradient id="paint1_linear_1132_613" x1="298.049" y1="177" x2="298.049" y2="639" gradientUnits="userSpaceOnUse">
<stop stop-color="white" stop-opacity="0.35"/>
<stop offset="1" stop-color="white" stop-opacity="0"/>
</linearGradient>
<linearGradient id="paint2_linear_1132_613" x1="417.082" y1="381.966" x2="-13.2835" y2="549.983" gradientUnits="userSpaceOnUse">
<stop stop-color="white" stop-opacity="0.35"/>
<stop offset="1" stop-color="white" stop-opacity="0"/>
</linearGradient>
<linearGradient id="paint3_linear_1132_613" x1="-53.2651" y1="699.237" x2="384.167" y2="528.46" gradientUnits="userSpaceOnUse">
<stop stop-color="white" stop-opacity="0.35"/>
<stop offset="1" stop-color="white" stop-opacity="0"/>
</linearGradient>
<linearGradient id="paint4_linear_1132_613" x1="-35.0797" y1="257.273" x2="395.285" y2="89.2552" gradientUnits="userSpaceOnUse">
<stop stop-color="white" stop-opacity="0.35"/>
<stop offset="1" stop-color="white" stop-opacity="0"/>
</linearGradient>
<linearGradient id="paint5_linear_1132_613" x1="62.9512" y1="463.5" x2="62.9512" y2="1.49996" gradientUnits="userSpaceOnUse">
<stop stop-color="white" stop-opacity="0.35"/>
<stop offset="1" stop-color="white" stop-opacity="0"/>
</linearGradient>
<linearGradient id="paint6_linear_1132_613" x1="62.9512" y1="178.5" x2="62.9512" y2="640.5" gradientUnits="userSpaceOnUse">
<stop stop-color="white" stop-opacity="0.35"/>
<stop offset="1" stop-color="white" stop-opacity="0"/>
</linearGradient>
<clipPath id="clip0_1132_613">
<rect width="360" height="640" fill="white"/>
</clipPath>
</defs>
</svg>
